<mxfile host="Electron" modified="2024-06-27T17:09:29.935Z" agent="Mozilla/5.0 (Windows NT 10.0; Win64; x64) AppleWebKit/537.36 (KHTML, like Gecko) draw.io/24.6.1 Chrome/124.0.6367.207 Electron/30.0.6 Safari/537.36" etag="pIJsiBpKHAZpOFMFWziS" version="24.6.1" type="device" pages="11">
  <diagram name="mathematical_graph" id="v-6JVwbFvu8f3A3jY8cL">
    <mxGraphModel dx="1434" dy="836" grid="1" gridSize="10" guides="1" tooltips="1" connect="1" arrows="1" fold="1" page="1" pageScale="1" pageWidth="1100" pageHeight="850" math="0" shadow="0">
      <root>
        <mxCell id="ff0Qj4o1iaDJksC9NIbb-0" />
        <mxCell id="ff0Qj4o1iaDJksC9NIbb-1" parent="ff0Qj4o1iaDJksC9NIbb-0" />
        <mxCell id="ff0Qj4o1iaDJksC9NIbb-3" value="1" style="rounded=1;whiteSpace=wrap;html=1;arcSize=50;fillOpacity=0;fontFamily=Helvetica;fontSize=28;strokeWidth=3;fontStyle=1" vertex="1" parent="ff0Qj4o1iaDJksC9NIbb-1">
          <mxGeometry x="730" y="240" width="60" height="60" as="geometry" />
        </mxCell>
        <mxCell id="2kOz5AdNSug96bj6S_hC-7" style="rounded=0;orthogonalLoop=1;jettySize=auto;html=1;exitX=0.967;exitY=0.383;exitDx=0;exitDy=0;entryX=0.25;entryY=1;entryDx=0;entryDy=0;strokeWidth=3;endArrow=none;endFill=0;exitPerimeter=0;" edge="1" parent="ff0Qj4o1iaDJksC9NIbb-1" source="ff0Qj4o1iaDJksC9NIbb-5" target="ff0Qj4o1iaDJksC9NIbb-3">
          <mxGeometry relative="1" as="geometry" />
        </mxCell>
        <mxCell id="ff0Qj4o1iaDJksC9NIbb-5" value="2" style="rounded=1;whiteSpace=wrap;html=1;arcSize=50;fillOpacity=0;fontFamily=Helvetica;fontSize=28;strokeWidth=3;fontStyle=1" vertex="1" parent="ff0Qj4o1iaDJksC9NIbb-1">
          <mxGeometry x="640" y="340" width="60" height="60" as="geometry" />
        </mxCell>
        <mxCell id="ff0Qj4o1iaDJksC9NIbb-7" value="3" style="rounded=1;whiteSpace=wrap;html=1;arcSize=50;fillOpacity=0;fontFamily=Helvetica;fontSize=28;strokeWidth=3;fontStyle=1" vertex="1" parent="ff0Qj4o1iaDJksC9NIbb-1">
          <mxGeometry x="490" y="365" width="60" height="60" as="geometry" />
        </mxCell>
        <mxCell id="2kOz5AdNSug96bj6S_hC-1" style="rounded=0;orthogonalLoop=1;jettySize=auto;html=1;exitX=1;exitY=0.5;exitDx=0;exitDy=0;entryX=0;entryY=0.75;entryDx=0;entryDy=0;endArrow=none;endFill=0;strokeWidth=3;" edge="1" parent="ff0Qj4o1iaDJksC9NIbb-1" source="ff0Qj4o1iaDJksC9NIbb-9" target="ff0Qj4o1iaDJksC9NIbb-11">
          <mxGeometry relative="1" as="geometry" />
        </mxCell>
        <mxCell id="2kOz5AdNSug96bj6S_hC-3" style="rounded=0;orthogonalLoop=1;jettySize=auto;html=1;exitX=0.75;exitY=1;exitDx=0;exitDy=0;endArrow=none;endFill=0;strokeWidth=3;" edge="1" parent="ff0Qj4o1iaDJksC9NIbb-1" source="ff0Qj4o1iaDJksC9NIbb-9">
          <mxGeometry relative="1" as="geometry">
            <mxPoint x="510" y="360" as="targetPoint" />
          </mxGeometry>
        </mxCell>
        <mxCell id="ff0Qj4o1iaDJksC9NIbb-9" value="4" style="rounded=1;whiteSpace=wrap;html=1;arcSize=50;fillOpacity=0;fontFamily=Helvetica;fontSize=28;strokeWidth=3;fontStyle=1" vertex="1" parent="ff0Qj4o1iaDJksC9NIbb-1">
          <mxGeometry x="440" y="210" width="60" height="60" as="geometry" />
        </mxCell>
        <mxCell id="2kOz5AdNSug96bj6S_hC-5" style="rounded=0;orthogonalLoop=1;jettySize=auto;html=1;exitX=0.75;exitY=1;exitDx=0;exitDy=0;entryX=0.5;entryY=0;entryDx=0;entryDy=0;endArrow=none;endFill=0;strokeWidth=3;" edge="1" parent="ff0Qj4o1iaDJksC9NIbb-1" source="ff0Qj4o1iaDJksC9NIbb-11" target="ff0Qj4o1iaDJksC9NIbb-5">
          <mxGeometry relative="1" as="geometry" />
        </mxCell>
        <mxCell id="ff0Qj4o1iaDJksC9NIbb-11" value="5" style="rounded=1;whiteSpace=wrap;html=1;arcSize=50;fillOpacity=0;fontFamily=Helvetica;fontSize=28;strokeWidth=3;fontStyle=1" vertex="1" parent="ff0Qj4o1iaDJksC9NIbb-1">
          <mxGeometry x="600" y="170" width="60" height="60" as="geometry" />
        </mxCell>
        <mxCell id="2kOz5AdNSug96bj6S_hC-0" style="rounded=0;orthogonalLoop=1;jettySize=auto;html=1;exitX=1;exitY=0.75;exitDx=0;exitDy=0;strokeWidth=3;endArrow=none;endFill=0;entryX=-0.033;entryY=0.383;entryDx=0;entryDy=0;entryPerimeter=0;" edge="1" parent="ff0Qj4o1iaDJksC9NIbb-1" source="ff0Qj4o1iaDJksC9NIbb-13" target="ff0Qj4o1iaDJksC9NIbb-9">
          <mxGeometry relative="1" as="geometry">
            <mxPoint x="430" y="230" as="targetPoint" />
          </mxGeometry>
        </mxCell>
        <mxCell id="ff0Qj4o1iaDJksC9NIbb-13" value="6" style="rounded=1;whiteSpace=wrap;html=1;arcSize=50;fillOpacity=0;fontFamily=Helvetica;fontSize=28;strokeWidth=3;fontStyle=1" vertex="1" parent="ff0Qj4o1iaDJksC9NIbb-1">
          <mxGeometry x="300" y="160" width="60" height="60" as="geometry" />
        </mxCell>
        <mxCell id="2kOz5AdNSug96bj6S_hC-4" style="rounded=0;orthogonalLoop=1;jettySize=auto;html=1;exitX=1;exitY=0.5;exitDx=0;exitDy=0;entryX=0.05;entryY=0.633;entryDx=0;entryDy=0;entryPerimeter=0;endArrow=none;endFill=0;strokeWidth=3;" edge="1" parent="ff0Qj4o1iaDJksC9NIbb-1" source="ff0Qj4o1iaDJksC9NIbb-7" target="ff0Qj4o1iaDJksC9NIbb-5">
          <mxGeometry relative="1" as="geometry" />
        </mxCell>
        <mxCell id="2kOz5AdNSug96bj6S_hC-6" style="rounded=0;orthogonalLoop=1;jettySize=auto;html=1;exitX=1;exitY=0.75;exitDx=0;exitDy=0;entryX=0.1;entryY=0.15;entryDx=0;entryDy=0;entryPerimeter=0;endArrow=none;endFill=0;strokeWidth=3;" edge="1" parent="ff0Qj4o1iaDJksC9NIbb-1" source="ff0Qj4o1iaDJksC9NIbb-11" target="ff0Qj4o1iaDJksC9NIbb-3">
          <mxGeometry relative="1" as="geometry" />
        </mxCell>
      </root>
    </mxGraphModel>
  </diagram>
  <diagram name="adjacency_list" id="TnNBV3FMVkCdmSNJ2jdV">
    <mxGraphModel dx="1434" dy="836" grid="1" gridSize="10" guides="1" tooltips="1" connect="1" arrows="1" fold="1" page="1" pageScale="1" pageWidth="1100" pageHeight="850" math="0" shadow="0">
      <root>
        <mxCell id="0" />
        <mxCell id="1" parent="0" />
        <mxCell id="BeRGjr1xIKASXDwsAZgN-21" style="edgeStyle=orthogonalEdgeStyle;rounded=0;orthogonalLoop=1;jettySize=auto;html=1;exitX=1;exitY=0.5;exitDx=0;exitDy=0;entryX=0;entryY=0.5;entryDx=0;entryDy=0;fillOpacity=0;fontFamily=Helvetica;fontSize=28;strokeWidth=3;fontStyle=1" edge="1" parent="1" source="BeRGjr1xIKASXDwsAZgN-1" target="BeRGjr1xIKASXDwsAZgN-7">
          <mxGeometry relative="1" as="geometry" />
        </mxCell>
        <mxCell id="BeRGjr1xIKASXDwsAZgN-1" value="1" style="rounded=1;whiteSpace=wrap;html=1;arcSize=50;fillOpacity=0;fontFamily=Helvetica;fontSize=28;strokeWidth=3;fontStyle=1" vertex="1" parent="1">
          <mxGeometry x="170" y="90" width="60" height="60" as="geometry" />
        </mxCell>
        <mxCell id="BeRGjr1xIKASXDwsAZgN-23" value="" style="edgeStyle=orthogonalEdgeStyle;rounded=0;orthogonalLoop=1;jettySize=auto;html=1;fillOpacity=0;fontFamily=Helvetica;fontSize=28;strokeWidth=3;fontStyle=1" edge="1" parent="1" source="BeRGjr1xIKASXDwsAZgN-2" target="BeRGjr1xIKASXDwsAZgN-11">
          <mxGeometry relative="1" as="geometry" />
        </mxCell>
        <mxCell id="BeRGjr1xIKASXDwsAZgN-2" value="2" style="rounded=1;whiteSpace=wrap;html=1;arcSize=50;fillOpacity=0;fontFamily=Helvetica;fontSize=28;strokeWidth=3;fontStyle=1" vertex="1" parent="1">
          <mxGeometry x="170" y="170" width="60" height="60" as="geometry" />
        </mxCell>
        <mxCell id="BeRGjr1xIKASXDwsAZgN-26" value="" style="edgeStyle=orthogonalEdgeStyle;rounded=0;orthogonalLoop=1;jettySize=auto;html=1;fillOpacity=0;fontFamily=Helvetica;fontSize=28;strokeWidth=3;fontStyle=1" edge="1" parent="1" source="BeRGjr1xIKASXDwsAZgN-3" target="BeRGjr1xIKASXDwsAZgN-13">
          <mxGeometry relative="1" as="geometry" />
        </mxCell>
        <mxCell id="BeRGjr1xIKASXDwsAZgN-3" value="3" style="rounded=1;whiteSpace=wrap;html=1;arcSize=50;fillOpacity=0;fontFamily=Helvetica;fontSize=28;strokeWidth=3;fontStyle=1" vertex="1" parent="1">
          <mxGeometry x="170" y="250" width="60" height="60" as="geometry" />
        </mxCell>
        <mxCell id="BeRGjr1xIKASXDwsAZgN-28" value="" style="edgeStyle=orthogonalEdgeStyle;rounded=0;orthogonalLoop=1;jettySize=auto;html=1;fillOpacity=0;fontFamily=Helvetica;fontSize=28;strokeWidth=3;fontStyle=1" edge="1" parent="1" source="BeRGjr1xIKASXDwsAZgN-4" target="BeRGjr1xIKASXDwsAZgN-14">
          <mxGeometry relative="1" as="geometry" />
        </mxCell>
        <mxCell id="BeRGjr1xIKASXDwsAZgN-4" value="4" style="rounded=1;whiteSpace=wrap;html=1;arcSize=50;fillOpacity=0;fontFamily=Helvetica;fontSize=28;strokeWidth=3;fontStyle=1" vertex="1" parent="1">
          <mxGeometry x="170" y="330" width="60" height="60" as="geometry" />
        </mxCell>
        <mxCell id="BeRGjr1xIKASXDwsAZgN-31" value="" style="edgeStyle=orthogonalEdgeStyle;rounded=0;orthogonalLoop=1;jettySize=auto;html=1;fillOpacity=0;fontFamily=Helvetica;fontSize=28;strokeWidth=3;fontStyle=1" edge="1" parent="1" source="BeRGjr1xIKASXDwsAZgN-5" target="BeRGjr1xIKASXDwsAZgN-17">
          <mxGeometry relative="1" as="geometry" />
        </mxCell>
        <mxCell id="BeRGjr1xIKASXDwsAZgN-5" value="5" style="rounded=1;whiteSpace=wrap;html=1;arcSize=50;fillOpacity=0;fontFamily=Helvetica;fontSize=28;strokeWidth=3;fontStyle=1" vertex="1" parent="1">
          <mxGeometry x="170" y="410" width="60" height="60" as="geometry" />
        </mxCell>
        <mxCell id="BeRGjr1xIKASXDwsAZgN-34" value="" style="edgeStyle=orthogonalEdgeStyle;rounded=0;orthogonalLoop=1;jettySize=auto;html=1;fillOpacity=0;fontFamily=Helvetica;fontSize=28;strokeWidth=3;fontStyle=1" edge="1" parent="1" source="BeRGjr1xIKASXDwsAZgN-6" target="BeRGjr1xIKASXDwsAZgN-20">
          <mxGeometry relative="1" as="geometry" />
        </mxCell>
        <mxCell id="BeRGjr1xIKASXDwsAZgN-6" value="6" style="rounded=1;whiteSpace=wrap;html=1;arcSize=50;fillOpacity=0;fontFamily=Helvetica;fontSize=28;strokeWidth=3;fontStyle=1" vertex="1" parent="1">
          <mxGeometry x="170" y="490" width="60" height="60" as="geometry" />
        </mxCell>
        <mxCell id="BeRGjr1xIKASXDwsAZgN-22" style="edgeStyle=orthogonalEdgeStyle;rounded=0;orthogonalLoop=1;jettySize=auto;html=1;exitX=1;exitY=0.5;exitDx=0;exitDy=0;entryX=0;entryY=0.5;entryDx=0;entryDy=0;fillOpacity=0;fontFamily=Helvetica;fontSize=28;strokeWidth=3;fontStyle=1" edge="1" parent="1" source="BeRGjr1xIKASXDwsAZgN-7" target="BeRGjr1xIKASXDwsAZgN-8">
          <mxGeometry relative="1" as="geometry" />
        </mxCell>
        <mxCell id="BeRGjr1xIKASXDwsAZgN-7" value="2" style="rounded=0;whiteSpace=wrap;html=1;fillOpacity=0;fontFamily=Helvetica;fontSize=28;strokeWidth=3;fontStyle=1" vertex="1" parent="1">
          <mxGeometry x="290" y="90" width="60" height="60" as="geometry" />
        </mxCell>
        <mxCell id="BeRGjr1xIKASXDwsAZgN-8" value="5" style="rounded=0;whiteSpace=wrap;html=1;fillOpacity=0;fontFamily=Helvetica;fontSize=28;strokeWidth=3;fontStyle=1" vertex="1" parent="1">
          <mxGeometry x="380" y="90" width="60" height="60" as="geometry" />
        </mxCell>
        <mxCell id="BeRGjr1xIKASXDwsAZgN-25" value="" style="edgeStyle=orthogonalEdgeStyle;rounded=0;orthogonalLoop=1;jettySize=auto;html=1;fillOpacity=0;fontFamily=Helvetica;fontSize=28;strokeWidth=3;fontStyle=1" edge="1" parent="1" source="BeRGjr1xIKASXDwsAZgN-9" target="BeRGjr1xIKASXDwsAZgN-10">
          <mxGeometry relative="1" as="geometry" />
        </mxCell>
        <mxCell id="BeRGjr1xIKASXDwsAZgN-9" value="3" style="rounded=0;whiteSpace=wrap;html=1;fillOpacity=0;fontFamily=Helvetica;fontSize=28;strokeWidth=3;fontStyle=1" vertex="1" parent="1">
          <mxGeometry x="380" y="170" width="60" height="60" as="geometry" />
        </mxCell>
        <mxCell id="BeRGjr1xIKASXDwsAZgN-10" value="5" style="rounded=0;whiteSpace=wrap;html=1;fillOpacity=0;fontFamily=Helvetica;fontSize=28;strokeWidth=3;fontStyle=1" vertex="1" parent="1">
          <mxGeometry x="470" y="170" width="60" height="60" as="geometry" />
        </mxCell>
        <mxCell id="BeRGjr1xIKASXDwsAZgN-24" value="" style="edgeStyle=orthogonalEdgeStyle;rounded=0;orthogonalLoop=1;jettySize=auto;html=1;fillOpacity=0;fontFamily=Helvetica;fontSize=28;strokeWidth=3;fontStyle=1" edge="1" parent="1" source="BeRGjr1xIKASXDwsAZgN-11" target="BeRGjr1xIKASXDwsAZgN-9">
          <mxGeometry relative="1" as="geometry" />
        </mxCell>
        <mxCell id="BeRGjr1xIKASXDwsAZgN-11" value="1" style="rounded=0;whiteSpace=wrap;html=1;fillOpacity=0;fontFamily=Helvetica;fontSize=28;strokeWidth=3;fontStyle=1" vertex="1" parent="1">
          <mxGeometry x="290" y="170" width="60" height="60" as="geometry" />
        </mxCell>
        <mxCell id="BeRGjr1xIKASXDwsAZgN-12" value="4" style="rounded=0;whiteSpace=wrap;html=1;fillOpacity=0;fontFamily=Helvetica;fontSize=28;strokeWidth=3;fontStyle=1" vertex="1" parent="1">
          <mxGeometry x="380" y="250" width="60" height="60" as="geometry" />
        </mxCell>
        <mxCell id="BeRGjr1xIKASXDwsAZgN-27" value="" style="edgeStyle=orthogonalEdgeStyle;rounded=0;orthogonalLoop=1;jettySize=auto;html=1;fillOpacity=0;fontFamily=Helvetica;fontSize=28;strokeWidth=3;fontStyle=1" edge="1" parent="1" source="BeRGjr1xIKASXDwsAZgN-13" target="BeRGjr1xIKASXDwsAZgN-12">
          <mxGeometry relative="1" as="geometry" />
        </mxCell>
        <mxCell id="BeRGjr1xIKASXDwsAZgN-13" value="2" style="rounded=0;whiteSpace=wrap;html=1;fillOpacity=0;fontFamily=Helvetica;fontSize=28;strokeWidth=3;fontStyle=1" vertex="1" parent="1">
          <mxGeometry x="290" y="250" width="60" height="60" as="geometry" />
        </mxCell>
        <mxCell id="BeRGjr1xIKASXDwsAZgN-29" value="" style="edgeStyle=orthogonalEdgeStyle;rounded=0;orthogonalLoop=1;jettySize=auto;html=1;fillOpacity=0;fontFamily=Helvetica;fontSize=28;strokeWidth=3;fontStyle=1" edge="1" parent="1" source="BeRGjr1xIKASXDwsAZgN-14" target="BeRGjr1xIKASXDwsAZgN-15">
          <mxGeometry relative="1" as="geometry" />
        </mxCell>
        <mxCell id="BeRGjr1xIKASXDwsAZgN-14" value="3" style="rounded=0;whiteSpace=wrap;html=1;fillOpacity=0;fontFamily=Helvetica;fontSize=28;strokeWidth=3;fontStyle=1" vertex="1" parent="1">
          <mxGeometry x="290" y="330" width="60" height="60" as="geometry" />
        </mxCell>
        <mxCell id="BeRGjr1xIKASXDwsAZgN-30" value="" style="edgeStyle=orthogonalEdgeStyle;rounded=0;orthogonalLoop=1;jettySize=auto;html=1;fillOpacity=0;fontFamily=Helvetica;fontSize=28;strokeWidth=3;fontStyle=1" edge="1" parent="1" source="BeRGjr1xIKASXDwsAZgN-15" target="BeRGjr1xIKASXDwsAZgN-16">
          <mxGeometry relative="1" as="geometry" />
        </mxCell>
        <mxCell id="BeRGjr1xIKASXDwsAZgN-15" value="5" style="rounded=0;whiteSpace=wrap;html=1;fillOpacity=0;fontFamily=Helvetica;fontSize=28;strokeWidth=3;fontStyle=1" vertex="1" parent="1">
          <mxGeometry x="380" y="330" width="60" height="60" as="geometry" />
        </mxCell>
        <mxCell id="BeRGjr1xIKASXDwsAZgN-16" value="6" style="rounded=0;whiteSpace=wrap;html=1;fillOpacity=0;fontFamily=Helvetica;fontSize=28;strokeWidth=3;fontStyle=1" vertex="1" parent="1">
          <mxGeometry x="470" y="330" width="60" height="60" as="geometry" />
        </mxCell>
        <mxCell id="BeRGjr1xIKASXDwsAZgN-32" value="" style="edgeStyle=orthogonalEdgeStyle;rounded=0;orthogonalLoop=1;jettySize=auto;html=1;fillOpacity=0;fontFamily=Helvetica;fontSize=28;strokeWidth=3;fontStyle=1" edge="1" parent="1" source="BeRGjr1xIKASXDwsAZgN-17" target="BeRGjr1xIKASXDwsAZgN-18">
          <mxGeometry relative="1" as="geometry" />
        </mxCell>
        <mxCell id="BeRGjr1xIKASXDwsAZgN-17" value="1" style="rounded=0;whiteSpace=wrap;html=1;fillOpacity=0;fontFamily=Helvetica;fontSize=28;strokeWidth=3;fontStyle=1" vertex="1" parent="1">
          <mxGeometry x="290" y="410" width="60" height="60" as="geometry" />
        </mxCell>
        <mxCell id="BeRGjr1xIKASXDwsAZgN-33" value="" style="edgeStyle=orthogonalEdgeStyle;rounded=0;orthogonalLoop=1;jettySize=auto;html=1;fillOpacity=0;fontFamily=Helvetica;fontSize=28;strokeWidth=3;fontStyle=1" edge="1" parent="1" source="BeRGjr1xIKASXDwsAZgN-18" target="BeRGjr1xIKASXDwsAZgN-19">
          <mxGeometry relative="1" as="geometry" />
        </mxCell>
        <mxCell id="BeRGjr1xIKASXDwsAZgN-18" value="2" style="rounded=0;whiteSpace=wrap;html=1;fillOpacity=0;fontFamily=Helvetica;fontSize=28;strokeWidth=3;fontStyle=1" vertex="1" parent="1">
          <mxGeometry x="380" y="410" width="60" height="60" as="geometry" />
        </mxCell>
        <mxCell id="BeRGjr1xIKASXDwsAZgN-19" value="4" style="rounded=0;whiteSpace=wrap;html=1;fillOpacity=0;fontFamily=Helvetica;fontSize=28;strokeWidth=3;fontStyle=1" vertex="1" parent="1">
          <mxGeometry x="470" y="410" width="60" height="60" as="geometry" />
        </mxCell>
        <mxCell id="BeRGjr1xIKASXDwsAZgN-20" value="4" style="rounded=0;whiteSpace=wrap;html=1;fillOpacity=0;fontFamily=Helvetica;fontSize=28;strokeWidth=3;fontStyle=1" vertex="1" parent="1">
          <mxGeometry x="290" y="490" width="60" height="60" as="geometry" />
        </mxCell>
        <mxCell id="BeRGjr1xIKASXDwsAZgN-47" style="edgeStyle=orthogonalEdgeStyle;rounded=0;orthogonalLoop=1;jettySize=auto;html=1;exitX=1;exitY=0.5;exitDx=0;exitDy=0;entryX=0;entryY=0.5;entryDx=0;entryDy=0;fillOpacity=0;fontFamily=Helvetica;fontSize=28;strokeWidth=3;fontStyle=1" edge="1" parent="1" target="BeRGjr1xIKASXDwsAZgN-48">
          <mxGeometry relative="1" as="geometry">
            <mxPoint x="440" y="120" as="sourcePoint" />
          </mxGeometry>
        </mxCell>
        <mxCell id="BeRGjr1xIKASXDwsAZgN-48" value="X" style="rounded=0;whiteSpace=wrap;html=1;fillOpacity=0;fontFamily=Helvetica;fontSize=28;strokeWidth=3;fontStyle=1" vertex="1" parent="1">
          <mxGeometry x="470" y="90" width="60" height="60" as="geometry" />
        </mxCell>
        <mxCell id="BeRGjr1xIKASXDwsAZgN-49" style="edgeStyle=orthogonalEdgeStyle;rounded=0;orthogonalLoop=1;jettySize=auto;html=1;exitX=1;exitY=0.5;exitDx=0;exitDy=0;entryX=0;entryY=0.5;entryDx=0;entryDy=0;fillOpacity=0;fontFamily=Helvetica;fontSize=28;strokeWidth=3;fontStyle=1" edge="1" parent="1" target="BeRGjr1xIKASXDwsAZgN-50">
          <mxGeometry relative="1" as="geometry">
            <mxPoint x="530" y="200" as="sourcePoint" />
          </mxGeometry>
        </mxCell>
        <mxCell id="BeRGjr1xIKASXDwsAZgN-50" value="X" style="rounded=0;whiteSpace=wrap;html=1;fillOpacity=0;fontFamily=Helvetica;fontSize=28;strokeWidth=3;fontStyle=1" vertex="1" parent="1">
          <mxGeometry x="560" y="170" width="60" height="60" as="geometry" />
        </mxCell>
        <mxCell id="BeRGjr1xIKASXDwsAZgN-53" style="edgeStyle=orthogonalEdgeStyle;rounded=0;orthogonalLoop=1;jettySize=auto;html=1;exitX=1;exitY=0.5;exitDx=0;exitDy=0;entryX=0;entryY=0.5;entryDx=0;entryDy=0;fillOpacity=0;fontFamily=Helvetica;fontSize=28;strokeWidth=3;fontStyle=1" edge="1" parent="1" target="BeRGjr1xIKASXDwsAZgN-54">
          <mxGeometry relative="1" as="geometry">
            <mxPoint x="440" y="280" as="sourcePoint" />
          </mxGeometry>
        </mxCell>
        <mxCell id="BeRGjr1xIKASXDwsAZgN-54" value="X" style="rounded=0;whiteSpace=wrap;html=1;fillOpacity=0;fontFamily=Helvetica;fontSize=28;strokeWidth=3;fontStyle=1" vertex="1" parent="1">
          <mxGeometry x="470" y="250" width="60" height="60" as="geometry" />
        </mxCell>
        <mxCell id="BeRGjr1xIKASXDwsAZgN-55" style="edgeStyle=orthogonalEdgeStyle;rounded=0;orthogonalLoop=1;jettySize=auto;html=1;exitX=1;exitY=0.5;exitDx=0;exitDy=0;entryX=0;entryY=0.5;entryDx=0;entryDy=0;fillOpacity=0;fontFamily=Helvetica;fontSize=28;strokeWidth=3;fontStyle=1" edge="1" parent="1" target="BeRGjr1xIKASXDwsAZgN-56">
          <mxGeometry relative="1" as="geometry">
            <mxPoint x="530" y="360" as="sourcePoint" />
          </mxGeometry>
        </mxCell>
        <mxCell id="BeRGjr1xIKASXDwsAZgN-56" value="X" style="rounded=0;whiteSpace=wrap;html=1;fillOpacity=0;fontFamily=Helvetica;fontSize=28;strokeWidth=3;fontStyle=1" vertex="1" parent="1">
          <mxGeometry x="560" y="330" width="60" height="60" as="geometry" />
        </mxCell>
        <mxCell id="BeRGjr1xIKASXDwsAZgN-57" style="edgeStyle=orthogonalEdgeStyle;rounded=0;orthogonalLoop=1;jettySize=auto;html=1;exitX=1;exitY=0.5;exitDx=0;exitDy=0;entryX=0;entryY=0.5;entryDx=0;entryDy=0;fillOpacity=0;fontFamily=Helvetica;fontSize=28;strokeWidth=3;fontStyle=1" edge="1" parent="1" target="BeRGjr1xIKASXDwsAZgN-58">
          <mxGeometry relative="1" as="geometry">
            <mxPoint x="530" y="440" as="sourcePoint" />
          </mxGeometry>
        </mxCell>
        <mxCell id="BeRGjr1xIKASXDwsAZgN-58" value="X" style="rounded=0;whiteSpace=wrap;html=1;fillOpacity=0;fontFamily=Helvetica;fontSize=28;strokeWidth=3;fontStyle=1" vertex="1" parent="1">
          <mxGeometry x="560" y="410" width="60" height="60" as="geometry" />
        </mxCell>
        <mxCell id="BeRGjr1xIKASXDwsAZgN-59" style="edgeStyle=orthogonalEdgeStyle;rounded=0;orthogonalLoop=1;jettySize=auto;html=1;exitX=1;exitY=0.5;exitDx=0;exitDy=0;entryX=0;entryY=0.5;entryDx=0;entryDy=0;fillOpacity=0;fontFamily=Helvetica;fontSize=28;strokeWidth=3;fontStyle=1" edge="1" parent="1" target="BeRGjr1xIKASXDwsAZgN-60">
          <mxGeometry relative="1" as="geometry">
            <mxPoint x="350" y="520" as="sourcePoint" />
          </mxGeometry>
        </mxCell>
        <mxCell id="BeRGjr1xIKASXDwsAZgN-60" value="X" style="rounded=0;whiteSpace=wrap;html=1;fillOpacity=0;fontFamily=Helvetica;fontSize=28;strokeWidth=3;fontStyle=1" vertex="1" parent="1">
          <mxGeometry x="380" y="490" width="60" height="60" as="geometry" />
        </mxCell>
      </root>
    </mxGraphModel>
  </diagram>
  <diagram name="adjacency_matrix" id="FfkPk89jAG6Ma7i7pSfU">
    <mxGraphModel dx="1434" dy="836" grid="1" gridSize="10" guides="1" tooltips="1" connect="1" arrows="1" fold="1" page="1" pageScale="1" pageWidth="1100" pageHeight="850" math="0" shadow="0">
      <root>
        <mxCell id="hm2SbZCed3NSuGwGlDa7-0" />
        <mxCell id="hm2SbZCed3NSuGwGlDa7-1" parent="hm2SbZCed3NSuGwGlDa7-0" />
        <mxCell id="OBGB41Wt6JgaGm3EcDoJ-1" value="0" style="rounded=0;whiteSpace=wrap;html=1;fillOpacity=0;fontFamily=Helvetica;fontSize=28;strokeWidth=3;fontStyle=1" vertex="1" parent="hm2SbZCed3NSuGwGlDa7-1">
          <mxGeometry x="400" y="200" width="60" height="60" as="geometry" />
        </mxCell>
        <mxCell id="OBGB41Wt6JgaGm3EcDoJ-2" value="1" style="rounded=0;whiteSpace=wrap;html=1;fillOpacity=0;fontFamily=Helvetica;fontSize=28;strokeWidth=3;fontStyle=1" vertex="1" parent="hm2SbZCed3NSuGwGlDa7-1">
          <mxGeometry x="400" y="260" width="60" height="60" as="geometry" />
        </mxCell>
        <mxCell id="OBGB41Wt6JgaGm3EcDoJ-3" value="0" style="rounded=0;whiteSpace=wrap;html=1;fillOpacity=0;fontFamily=Helvetica;fontSize=28;strokeWidth=3;fontStyle=1" vertex="1" parent="hm2SbZCed3NSuGwGlDa7-1">
          <mxGeometry x="400" y="320" width="60" height="60" as="geometry" />
        </mxCell>
        <mxCell id="OBGB41Wt6JgaGm3EcDoJ-4" value="0" style="rounded=0;whiteSpace=wrap;html=1;fillOpacity=0;fontFamily=Helvetica;fontSize=28;strokeWidth=3;fontStyle=1" vertex="1" parent="hm2SbZCed3NSuGwGlDa7-1">
          <mxGeometry x="400" y="380" width="60" height="60" as="geometry" />
        </mxCell>
        <mxCell id="OBGB41Wt6JgaGm3EcDoJ-5" value="1" style="rounded=0;whiteSpace=wrap;html=1;fillOpacity=0;fontFamily=Helvetica;fontSize=28;strokeWidth=3;fontStyle=1" vertex="1" parent="hm2SbZCed3NSuGwGlDa7-1">
          <mxGeometry x="400" y="440" width="60" height="60" as="geometry" />
        </mxCell>
        <mxCell id="OBGB41Wt6JgaGm3EcDoJ-6" value="0" style="rounded=0;whiteSpace=wrap;html=1;fillOpacity=0;fontFamily=Helvetica;fontSize=28;strokeWidth=3;fontStyle=1" vertex="1" parent="hm2SbZCed3NSuGwGlDa7-1">
          <mxGeometry x="400" y="500" width="60" height="60" as="geometry" />
        </mxCell>
        <mxCell id="OBGB41Wt6JgaGm3EcDoJ-7" value="1" style="rounded=0;whiteSpace=wrap;html=1;fillOpacity=0;fontFamily=Helvetica;fontSize=28;strokeWidth=3;fontStyle=1" vertex="1" parent="hm2SbZCed3NSuGwGlDa7-1">
          <mxGeometry x="460" y="200" width="60" height="60" as="geometry" />
        </mxCell>
        <mxCell id="OBGB41Wt6JgaGm3EcDoJ-8" value="0" style="rounded=0;whiteSpace=wrap;html=1;fillOpacity=0;fontFamily=Helvetica;fontSize=28;strokeWidth=3;fontStyle=1" vertex="1" parent="hm2SbZCed3NSuGwGlDa7-1">
          <mxGeometry x="460" y="260" width="60" height="60" as="geometry" />
        </mxCell>
        <mxCell id="OBGB41Wt6JgaGm3EcDoJ-9" value="1" style="rounded=0;whiteSpace=wrap;html=1;fillOpacity=0;fontFamily=Helvetica;fontSize=28;strokeWidth=3;fontStyle=1" vertex="1" parent="hm2SbZCed3NSuGwGlDa7-1">
          <mxGeometry x="460" y="320" width="60" height="60" as="geometry" />
        </mxCell>
        <mxCell id="OBGB41Wt6JgaGm3EcDoJ-10" value="0" style="rounded=0;whiteSpace=wrap;html=1;fillOpacity=0;fontFamily=Helvetica;fontSize=28;strokeWidth=3;fontStyle=1" vertex="1" parent="hm2SbZCed3NSuGwGlDa7-1">
          <mxGeometry x="460" y="380" width="60" height="60" as="geometry" />
        </mxCell>
        <mxCell id="OBGB41Wt6JgaGm3EcDoJ-11" value="1" style="rounded=0;whiteSpace=wrap;html=1;fillOpacity=0;fontFamily=Helvetica;fontSize=28;strokeWidth=3;fontStyle=1" vertex="1" parent="hm2SbZCed3NSuGwGlDa7-1">
          <mxGeometry x="460" y="440" width="60" height="60" as="geometry" />
        </mxCell>
        <mxCell id="OBGB41Wt6JgaGm3EcDoJ-12" value="0" style="rounded=0;whiteSpace=wrap;html=1;fillOpacity=0;fontFamily=Helvetica;fontSize=28;strokeWidth=3;fontStyle=1" vertex="1" parent="hm2SbZCed3NSuGwGlDa7-1">
          <mxGeometry x="460" y="500" width="60" height="60" as="geometry" />
        </mxCell>
        <mxCell id="OBGB41Wt6JgaGm3EcDoJ-13" value="0" style="rounded=0;whiteSpace=wrap;html=1;fillOpacity=0;fontFamily=Helvetica;fontSize=28;strokeWidth=3;fontStyle=1" vertex="1" parent="hm2SbZCed3NSuGwGlDa7-1">
          <mxGeometry x="520" y="200" width="60" height="60" as="geometry" />
        </mxCell>
        <mxCell id="OBGB41Wt6JgaGm3EcDoJ-14" value="1" style="rounded=0;whiteSpace=wrap;html=1;fillOpacity=0;fontFamily=Helvetica;fontSize=28;strokeWidth=3;fontStyle=1" vertex="1" parent="hm2SbZCed3NSuGwGlDa7-1">
          <mxGeometry x="520" y="260" width="60" height="60" as="geometry" />
        </mxCell>
        <mxCell id="OBGB41Wt6JgaGm3EcDoJ-15" value="0" style="rounded=0;whiteSpace=wrap;html=1;fillOpacity=0;fontFamily=Helvetica;fontSize=28;strokeWidth=3;fontStyle=1" vertex="1" parent="hm2SbZCed3NSuGwGlDa7-1">
          <mxGeometry x="520" y="320" width="60" height="60" as="geometry" />
        </mxCell>
        <mxCell id="OBGB41Wt6JgaGm3EcDoJ-16" value="1" style="rounded=0;whiteSpace=wrap;html=1;fillOpacity=0;fontFamily=Helvetica;fontSize=28;strokeWidth=3;fontStyle=1" vertex="1" parent="hm2SbZCed3NSuGwGlDa7-1">
          <mxGeometry x="520" y="380" width="60" height="60" as="geometry" />
        </mxCell>
        <mxCell id="OBGB41Wt6JgaGm3EcDoJ-17" value="0" style="rounded=0;whiteSpace=wrap;html=1;fillOpacity=0;fontFamily=Helvetica;fontSize=28;strokeWidth=3;fontStyle=1" vertex="1" parent="hm2SbZCed3NSuGwGlDa7-1">
          <mxGeometry x="520" y="440" width="60" height="60" as="geometry" />
        </mxCell>
        <mxCell id="OBGB41Wt6JgaGm3EcDoJ-18" value="0" style="rounded=0;whiteSpace=wrap;html=1;fillOpacity=0;fontFamily=Helvetica;fontSize=28;strokeWidth=3;fontStyle=1" vertex="1" parent="hm2SbZCed3NSuGwGlDa7-1">
          <mxGeometry x="520" y="500" width="60" height="60" as="geometry" />
        </mxCell>
        <mxCell id="OBGB41Wt6JgaGm3EcDoJ-19" value="0" style="rounded=0;whiteSpace=wrap;html=1;fillOpacity=0;fontFamily=Helvetica;fontSize=28;strokeWidth=3;fontStyle=1" vertex="1" parent="hm2SbZCed3NSuGwGlDa7-1">
          <mxGeometry x="580" y="200" width="60" height="60" as="geometry" />
        </mxCell>
        <mxCell id="OBGB41Wt6JgaGm3EcDoJ-20" value="0" style="rounded=0;whiteSpace=wrap;html=1;fillOpacity=0;fontFamily=Helvetica;fontSize=28;strokeWidth=3;fontStyle=1" vertex="1" parent="hm2SbZCed3NSuGwGlDa7-1">
          <mxGeometry x="580" y="260" width="60" height="60" as="geometry" />
        </mxCell>
        <mxCell id="OBGB41Wt6JgaGm3EcDoJ-21" value="1" style="rounded=0;whiteSpace=wrap;html=1;fillOpacity=0;fontFamily=Helvetica;fontSize=28;strokeWidth=3;fontStyle=1" vertex="1" parent="hm2SbZCed3NSuGwGlDa7-1">
          <mxGeometry x="580" y="320" width="60" height="60" as="geometry" />
        </mxCell>
        <mxCell id="OBGB41Wt6JgaGm3EcDoJ-22" value="0" style="rounded=0;whiteSpace=wrap;html=1;fillOpacity=0;fontFamily=Helvetica;fontSize=28;strokeWidth=3;fontStyle=1" vertex="1" parent="hm2SbZCed3NSuGwGlDa7-1">
          <mxGeometry x="580" y="380" width="60" height="60" as="geometry" />
        </mxCell>
        <mxCell id="OBGB41Wt6JgaGm3EcDoJ-23" value="1" style="rounded=0;whiteSpace=wrap;html=1;fillOpacity=0;fontFamily=Helvetica;fontSize=28;strokeWidth=3;fontStyle=1" vertex="1" parent="hm2SbZCed3NSuGwGlDa7-1">
          <mxGeometry x="580" y="440" width="60" height="60" as="geometry" />
        </mxCell>
        <mxCell id="OBGB41Wt6JgaGm3EcDoJ-24" value="1" style="rounded=0;whiteSpace=wrap;html=1;fillOpacity=0;fontFamily=Helvetica;fontSize=28;strokeWidth=3;fontStyle=1" vertex="1" parent="hm2SbZCed3NSuGwGlDa7-1">
          <mxGeometry x="580" y="500" width="60" height="60" as="geometry" />
        </mxCell>
        <mxCell id="OBGB41Wt6JgaGm3EcDoJ-25" value="1" style="rounded=0;whiteSpace=wrap;html=1;fillOpacity=0;fontFamily=Helvetica;fontSize=28;strokeWidth=3;fontStyle=1" vertex="1" parent="hm2SbZCed3NSuGwGlDa7-1">
          <mxGeometry x="640" y="200" width="60" height="60" as="geometry" />
        </mxCell>
        <mxCell id="OBGB41Wt6JgaGm3EcDoJ-26" value="1" style="rounded=0;whiteSpace=wrap;html=1;fillOpacity=0;fontFamily=Helvetica;fontSize=28;strokeWidth=3;fontStyle=1" vertex="1" parent="hm2SbZCed3NSuGwGlDa7-1">
          <mxGeometry x="640" y="260" width="60" height="60" as="geometry" />
        </mxCell>
        <mxCell id="OBGB41Wt6JgaGm3EcDoJ-27" value="0" style="rounded=0;whiteSpace=wrap;html=1;fillOpacity=0;fontFamily=Helvetica;fontSize=28;strokeWidth=3;fontStyle=1" vertex="1" parent="hm2SbZCed3NSuGwGlDa7-1">
          <mxGeometry x="640" y="320" width="60" height="60" as="geometry" />
        </mxCell>
        <mxCell id="OBGB41Wt6JgaGm3EcDoJ-28" value="1" style="rounded=0;whiteSpace=wrap;html=1;fillOpacity=0;fontFamily=Helvetica;fontSize=28;strokeWidth=3;fontStyle=1" vertex="1" parent="hm2SbZCed3NSuGwGlDa7-1">
          <mxGeometry x="640" y="380" width="60" height="60" as="geometry" />
        </mxCell>
        <mxCell id="OBGB41Wt6JgaGm3EcDoJ-29" value="0" style="rounded=0;whiteSpace=wrap;html=1;fillOpacity=0;fontFamily=Helvetica;fontSize=28;strokeWidth=3;fontStyle=1" vertex="1" parent="hm2SbZCed3NSuGwGlDa7-1">
          <mxGeometry x="640" y="440" width="60" height="60" as="geometry" />
        </mxCell>
        <mxCell id="OBGB41Wt6JgaGm3EcDoJ-30" value="0" style="rounded=0;whiteSpace=wrap;html=1;fillOpacity=0;fontFamily=Helvetica;fontSize=28;strokeWidth=3;fontStyle=1" vertex="1" parent="hm2SbZCed3NSuGwGlDa7-1">
          <mxGeometry x="640" y="500" width="60" height="60" as="geometry" />
        </mxCell>
        <mxCell id="OBGB41Wt6JgaGm3EcDoJ-31" value="0" style="rounded=0;whiteSpace=wrap;html=1;fillOpacity=0;fontFamily=Helvetica;fontSize=28;strokeWidth=3;fontStyle=1" vertex="1" parent="hm2SbZCed3NSuGwGlDa7-1">
          <mxGeometry x="700" y="200" width="60" height="60" as="geometry" />
        </mxCell>
        <mxCell id="OBGB41Wt6JgaGm3EcDoJ-32" value="0" style="rounded=0;whiteSpace=wrap;html=1;fillOpacity=0;fontFamily=Helvetica;fontSize=28;strokeWidth=3;fontStyle=1" vertex="1" parent="hm2SbZCed3NSuGwGlDa7-1">
          <mxGeometry x="700" y="260" width="60" height="60" as="geometry" />
        </mxCell>
        <mxCell id="OBGB41Wt6JgaGm3EcDoJ-33" value="0" style="rounded=0;whiteSpace=wrap;html=1;fillOpacity=0;fontFamily=Helvetica;fontSize=28;strokeWidth=3;fontStyle=1" vertex="1" parent="hm2SbZCed3NSuGwGlDa7-1">
          <mxGeometry x="700" y="320" width="60" height="60" as="geometry" />
        </mxCell>
        <mxCell id="OBGB41Wt6JgaGm3EcDoJ-34" value="1" style="rounded=0;whiteSpace=wrap;html=1;fillOpacity=0;fontFamily=Helvetica;fontSize=28;strokeWidth=3;fontStyle=1" vertex="1" parent="hm2SbZCed3NSuGwGlDa7-1">
          <mxGeometry x="700" y="380" width="60" height="60" as="geometry" />
        </mxCell>
        <mxCell id="OBGB41Wt6JgaGm3EcDoJ-35" value="0" style="rounded=0;whiteSpace=wrap;html=1;fillOpacity=0;fontFamily=Helvetica;fontSize=28;strokeWidth=3;fontStyle=1" vertex="1" parent="hm2SbZCed3NSuGwGlDa7-1">
          <mxGeometry x="700" y="440" width="60" height="60" as="geometry" />
        </mxCell>
        <mxCell id="OBGB41Wt6JgaGm3EcDoJ-36" value="0" style="rounded=0;whiteSpace=wrap;html=1;fillOpacity=0;fontFamily=Helvetica;fontSize=28;strokeWidth=3;fontStyle=1" vertex="1" parent="hm2SbZCed3NSuGwGlDa7-1">
          <mxGeometry x="700" y="500" width="60" height="60" as="geometry" />
        </mxCell>
        <mxCell id="OBGB41Wt6JgaGm3EcDoJ-37" value="1" style="rounded=0;whiteSpace=wrap;html=1;fillOpacity=0;fontFamily=Helvetica;fontSize=28;strokeWidth=3;fontStyle=1" vertex="1" parent="hm2SbZCed3NSuGwGlDa7-1">
          <mxGeometry x="320" y="200" width="60" height="60" as="geometry" />
        </mxCell>
        <mxCell id="OBGB41Wt6JgaGm3EcDoJ-38" value="2" style="rounded=0;whiteSpace=wrap;html=1;fillOpacity=0;fontFamily=Helvetica;fontSize=28;strokeWidth=3;fontStyle=1" vertex="1" parent="hm2SbZCed3NSuGwGlDa7-1">
          <mxGeometry x="320" y="260" width="60" height="60" as="geometry" />
        </mxCell>
        <mxCell id="OBGB41Wt6JgaGm3EcDoJ-39" value="3" style="rounded=0;whiteSpace=wrap;html=1;fillOpacity=0;fontFamily=Helvetica;fontSize=28;strokeWidth=3;fontStyle=1" vertex="1" parent="hm2SbZCed3NSuGwGlDa7-1">
          <mxGeometry x="320" y="320" width="60" height="60" as="geometry" />
        </mxCell>
        <mxCell id="OBGB41Wt6JgaGm3EcDoJ-40" value="4" style="rounded=0;whiteSpace=wrap;html=1;fillOpacity=0;fontFamily=Helvetica;fontSize=28;strokeWidth=3;fontStyle=1" vertex="1" parent="hm2SbZCed3NSuGwGlDa7-1">
          <mxGeometry x="320" y="380" width="60" height="60" as="geometry" />
        </mxCell>
        <mxCell id="OBGB41Wt6JgaGm3EcDoJ-41" value="5" style="rounded=0;whiteSpace=wrap;html=1;fillOpacity=0;fontFamily=Helvetica;fontSize=28;strokeWidth=3;fontStyle=1" vertex="1" parent="hm2SbZCed3NSuGwGlDa7-1">
          <mxGeometry x="320" y="440" width="60" height="60" as="geometry" />
        </mxCell>
        <mxCell id="OBGB41Wt6JgaGm3EcDoJ-42" value="6" style="rounded=0;whiteSpace=wrap;html=1;fillOpacity=0;fontFamily=Helvetica;fontSize=28;strokeWidth=3;fontStyle=1" vertex="1" parent="hm2SbZCed3NSuGwGlDa7-1">
          <mxGeometry x="320" y="500" width="60" height="60" as="geometry" />
        </mxCell>
        <mxCell id="OBGB41Wt6JgaGm3EcDoJ-43" value="1" style="rounded=0;whiteSpace=wrap;html=1;fillOpacity=0;fontFamily=Helvetica;fontSize=28;strokeWidth=3;fontStyle=1" vertex="1" parent="hm2SbZCed3NSuGwGlDa7-1">
          <mxGeometry x="400" y="120" width="60" height="60" as="geometry" />
        </mxCell>
        <mxCell id="OBGB41Wt6JgaGm3EcDoJ-44" value="2" style="rounded=0;whiteSpace=wrap;html=1;fillOpacity=0;fontFamily=Helvetica;fontSize=28;strokeWidth=3;fontStyle=1" vertex="1" parent="hm2SbZCed3NSuGwGlDa7-1">
          <mxGeometry x="460" y="120" width="60" height="60" as="geometry" />
        </mxCell>
        <mxCell id="OBGB41Wt6JgaGm3EcDoJ-45" value="3" style="rounded=0;whiteSpace=wrap;html=1;fillOpacity=0;fontFamily=Helvetica;fontSize=28;strokeWidth=3;fontStyle=1" vertex="1" parent="hm2SbZCed3NSuGwGlDa7-1">
          <mxGeometry x="520" y="120" width="60" height="60" as="geometry" />
        </mxCell>
        <mxCell id="OBGB41Wt6JgaGm3EcDoJ-46" value="4" style="rounded=0;whiteSpace=wrap;html=1;fillOpacity=0;fontFamily=Helvetica;fontSize=28;strokeWidth=3;fontStyle=1" vertex="1" parent="hm2SbZCed3NSuGwGlDa7-1">
          <mxGeometry x="580" y="120" width="60" height="60" as="geometry" />
        </mxCell>
        <mxCell id="OBGB41Wt6JgaGm3EcDoJ-47" value="5" style="rounded=0;whiteSpace=wrap;html=1;fillOpacity=0;fontFamily=Helvetica;fontSize=28;strokeWidth=3;fontStyle=1" vertex="1" parent="hm2SbZCed3NSuGwGlDa7-1">
          <mxGeometry x="640" y="120" width="60" height="60" as="geometry" />
        </mxCell>
        <mxCell id="OBGB41Wt6JgaGm3EcDoJ-48" value="6" style="rounded=0;whiteSpace=wrap;html=1;fillOpacity=0;fontFamily=Helvetica;fontSize=28;strokeWidth=3;fontStyle=1" vertex="1" parent="hm2SbZCed3NSuGwGlDa7-1">
          <mxGeometry x="700" y="120" width="60" height="60" as="geometry" />
        </mxCell>
      </root>
    </mxGraphModel>
  </diagram>
  <diagram id="b1WctvAC1kr0n_Un_K4n" name="page_ranking">
    <mxGraphModel dx="1434" dy="836" grid="1" gridSize="10" guides="1" tooltips="1" connect="1" arrows="1" fold="1" page="1" pageScale="1" pageWidth="1100" pageHeight="850" math="0" shadow="0">
      <root>
        <mxCell id="0" />
        <mxCell id="1" parent="0" />
        <mxCell id="3teilEMe3NR-Mcw97rRl-2" value="A&lt;div style=&quot;font-size: 21px;&quot;&gt;3.3%&lt;/div&gt;" style="ellipse;whiteSpace=wrap;html=1;aspect=fixed;strokeWidth=3;fontSize=21;fillOpacity=0;" parent="1" vertex="1">
          <mxGeometry x="140" y="220" width="80" height="80" as="geometry" />
        </mxCell>
        <mxCell id="3teilEMe3NR-Mcw97rRl-5" value="" style="rounded=0;orthogonalLoop=1;jettySize=auto;html=1;strokeWidth=3;fontSize=24;fillOpacity=0;" parent="1" source="3teilEMe3NR-Mcw97rRl-3" target="3teilEMe3NR-Mcw97rRl-2" edge="1">
          <mxGeometry relative="1" as="geometry" />
        </mxCell>
        <mxCell id="3teilEMe3NR-Mcw97rRl-3" value="&lt;div style=&quot;font-size: 21px;&quot;&gt;D&lt;/div&gt;&lt;div style=&quot;font-size: 21px;&quot;&gt;3.9%&lt;/div&gt;" style="ellipse;whiteSpace=wrap;html=1;aspect=fixed;strokeWidth=3;fontSize=21;fillOpacity=0;" parent="1" vertex="1">
          <mxGeometry x="160" y="385" width="80" height="80" as="geometry" />
        </mxCell>
        <mxCell id="3teilEMe3NR-Mcw97rRl-7" style="rounded=0;orthogonalLoop=1;jettySize=auto;html=1;exitX=0;exitY=0.5;exitDx=0;exitDy=0;entryX=1;entryY=1;entryDx=0;entryDy=0;strokeWidth=3;fontSize=24;fillOpacity=0;" parent="1" source="3teilEMe3NR-Mcw97rRl-6" target="3teilEMe3NR-Mcw97rRl-3" edge="1">
          <mxGeometry relative="1" as="geometry" />
        </mxCell>
        <mxCell id="3teilEMe3NR-Mcw97rRl-9" style="rounded=0;orthogonalLoop=1;jettySize=auto;html=1;exitX=1;exitY=0;exitDx=0;exitDy=0;entryX=0;entryY=0.5;entryDx=0;entryDy=0;strokeWidth=3;fontSize=24;fillOpacity=0;" parent="1" source="3teilEMe3NR-Mcw97rRl-6" target="3teilEMe3NR-Mcw97rRl-8" edge="1">
          <mxGeometry relative="1" as="geometry" />
        </mxCell>
        <mxCell id="3teilEMe3NR-Mcw97rRl-19" style="rounded=0;orthogonalLoop=1;jettySize=auto;html=1;exitX=0.5;exitY=0;exitDx=0;exitDy=0;strokeWidth=3;fontSize=24;fillOpacity=0;" parent="1" source="3teilEMe3NR-Mcw97rRl-6" target="3teilEMe3NR-Mcw97rRl-11" edge="1">
          <mxGeometry relative="1" as="geometry" />
        </mxCell>
        <mxCell id="3teilEMe3NR-Mcw97rRl-6" value="E&lt;div style=&quot;font-size: 24px;&quot;&gt;8.1%&lt;/div&gt;" style="ellipse;whiteSpace=wrap;html=1;aspect=fixed;strokeWidth=3;fontSize=24;fillOpacity=0;" parent="1" vertex="1">
          <mxGeometry x="430" y="400" width="110" height="110" as="geometry" />
        </mxCell>
        <mxCell id="3teilEMe3NR-Mcw97rRl-10" style="rounded=0;orthogonalLoop=1;jettySize=auto;html=1;exitX=0;exitY=1;exitDx=0;exitDy=0;entryX=1;entryY=0.5;entryDx=0;entryDy=0;strokeWidth=3;fontSize=24;fillOpacity=0;" parent="1" source="3teilEMe3NR-Mcw97rRl-8" target="3teilEMe3NR-Mcw97rRl-6" edge="1">
          <mxGeometry relative="1" as="geometry" />
        </mxCell>
        <mxCell id="3teilEMe3NR-Mcw97rRl-20" style="rounded=0;orthogonalLoop=1;jettySize=auto;html=1;exitX=0;exitY=0;exitDx=0;exitDy=0;entryX=1;entryY=1;entryDx=0;entryDy=0;strokeWidth=3;fontSize=24;fillOpacity=0;" parent="1" source="3teilEMe3NR-Mcw97rRl-8" target="3teilEMe3NR-Mcw97rRl-11" edge="1">
          <mxGeometry relative="1" as="geometry" />
        </mxCell>
        <mxCell id="3teilEMe3NR-Mcw97rRl-8" value="&lt;div style=&quot;font-size: 21px;&quot;&gt;F&lt;/div&gt;&lt;div style=&quot;font-size: 21px;&quot;&gt;3.9%&lt;/div&gt;" style="ellipse;whiteSpace=wrap;html=1;aspect=fixed;strokeWidth=3;fontSize=21;fillOpacity=0;" parent="1" vertex="1">
          <mxGeometry x="660" y="385" width="80" height="80" as="geometry" />
        </mxCell>
        <mxCell id="3teilEMe3NR-Mcw97rRl-11" value="B&lt;div style=&quot;font-size: 24px;&quot;&gt;38.4%&lt;/div&gt;" style="ellipse;whiteSpace=wrap;html=1;aspect=fixed;strokeWidth=3;fontSize=24;fillOpacity=0;" parent="1" vertex="1">
          <mxGeometry x="280" y="160" width="200" height="200" as="geometry" />
        </mxCell>
        <mxCell id="3teilEMe3NR-Mcw97rRl-23" style="rounded=0;orthogonalLoop=1;jettySize=auto;html=1;exitX=1;exitY=0;exitDx=0;exitDy=0;entryX=0;entryY=1;entryDx=0;entryDy=0;strokeWidth=3;fontSize=24;fillOpacity=0;" parent="1" source="3teilEMe3NR-Mcw97rRl-12" target="3teilEMe3NR-Mcw97rRl-6" edge="1">
          <mxGeometry relative="1" as="geometry" />
        </mxCell>
        <mxCell id="3teilEMe3NR-Mcw97rRl-12" value="1.6%" style="ellipse;whiteSpace=wrap;html=1;aspect=fixed;strokeWidth=3;fontSize=21;fillOpacity=0;" parent="1" vertex="1">
          <mxGeometry x="190" y="550" width="60" height="60" as="geometry" />
        </mxCell>
        <mxCell id="3teilEMe3NR-Mcw97rRl-13" value="1.6%" style="ellipse;whiteSpace=wrap;html=1;aspect=fixed;strokeWidth=3;fontSize=21;fillOpacity=0;" parent="1" vertex="1">
          <mxGeometry x="300" y="590" width="60" height="60" as="geometry" />
        </mxCell>
        <mxCell id="3teilEMe3NR-Mcw97rRl-25" style="rounded=0;orthogonalLoop=1;jettySize=auto;html=1;exitX=0.5;exitY=0;exitDx=0;exitDy=0;entryX=0.5;entryY=1;entryDx=0;entryDy=0;strokeWidth=3;fontSize=24;fillOpacity=0;" parent="1" source="3teilEMe3NR-Mcw97rRl-14" target="3teilEMe3NR-Mcw97rRl-6" edge="1">
          <mxGeometry relative="1" as="geometry" />
        </mxCell>
        <mxCell id="3teilEMe3NR-Mcw97rRl-31" style="rounded=0;orthogonalLoop=1;jettySize=auto;html=1;exitX=0;exitY=0;exitDx=0;exitDy=0;entryX=0.5;entryY=1;entryDx=0;entryDy=0;strokeWidth=3;fontSize=24;fillOpacity=0;" parent="1" source="3teilEMe3NR-Mcw97rRl-14" target="3teilEMe3NR-Mcw97rRl-11" edge="1">
          <mxGeometry relative="1" as="geometry" />
        </mxCell>
        <mxCell id="3teilEMe3NR-Mcw97rRl-14" value="1.6%" style="ellipse;whiteSpace=wrap;html=1;aspect=fixed;strokeWidth=3;fontSize=21;fillOpacity=0;" parent="1" vertex="1">
          <mxGeometry x="420" y="600" width="60" height="60" as="geometry" />
        </mxCell>
        <mxCell id="3teilEMe3NR-Mcw97rRl-15" value="1.6%" style="ellipse;whiteSpace=wrap;html=1;aspect=fixed;strokeWidth=3;fontSize=21;fillOpacity=0;" parent="1" vertex="1">
          <mxGeometry x="550" y="580" width="60" height="60" as="geometry" />
        </mxCell>
        <mxCell id="3teilEMe3NR-Mcw97rRl-16" value="1.6%" style="ellipse;whiteSpace=wrap;html=1;aspect=fixed;strokeWidth=3;fontSize=21;fillOpacity=0;" parent="1" vertex="1">
          <mxGeometry x="650" y="520" width="60" height="60" as="geometry" />
        </mxCell>
        <mxCell id="3teilEMe3NR-Mcw97rRl-17" value="C&lt;div style=&quot;font-size: 24px;&quot;&gt;34.3%&lt;/div&gt;" style="ellipse;whiteSpace=wrap;html=1;aspect=fixed;strokeWidth=3;fontSize=24;fillOpacity=0;" parent="1" vertex="1">
          <mxGeometry x="600" y="150" width="190" height="190" as="geometry" />
        </mxCell>
        <mxCell id="3teilEMe3NR-Mcw97rRl-18" style="rounded=0;orthogonalLoop=1;jettySize=auto;html=1;exitX=1;exitY=0;exitDx=0;exitDy=0;entryX=0.095;entryY=0.845;entryDx=0;entryDy=0;entryPerimeter=0;strokeWidth=3;fontSize=24;fillOpacity=0;" parent="1" source="3teilEMe3NR-Mcw97rRl-3" target="3teilEMe3NR-Mcw97rRl-11" edge="1">
          <mxGeometry relative="1" as="geometry" />
        </mxCell>
        <mxCell id="3teilEMe3NR-Mcw97rRl-21" style="rounded=0;orthogonalLoop=1;jettySize=auto;html=1;exitX=1;exitY=0;exitDx=0;exitDy=0;entryX=0.042;entryY=0.289;entryDx=0;entryDy=0;entryPerimeter=0;strokeWidth=3;fontSize=24;fillOpacity=0;" parent="1" source="3teilEMe3NR-Mcw97rRl-11" target="3teilEMe3NR-Mcw97rRl-17" edge="1">
          <mxGeometry relative="1" as="geometry" />
        </mxCell>
        <mxCell id="3teilEMe3NR-Mcw97rRl-22" style="rounded=0;orthogonalLoop=1;jettySize=auto;html=1;exitX=0;exitY=0.5;exitDx=0;exitDy=0;entryX=0.99;entryY=0.375;entryDx=0;entryDy=0;entryPerimeter=0;strokeWidth=3;fontSize=24;fillOpacity=0;" parent="1" source="3teilEMe3NR-Mcw97rRl-17" target="3teilEMe3NR-Mcw97rRl-11" edge="1">
          <mxGeometry relative="1" as="geometry" />
        </mxCell>
        <mxCell id="3teilEMe3NR-Mcw97rRl-24" style="rounded=0;orthogonalLoop=1;jettySize=auto;html=1;exitX=1;exitY=0;exitDx=0;exitDy=0;entryX=0.309;entryY=1.009;entryDx=0;entryDy=0;entryPerimeter=0;strokeWidth=3;fontSize=24;fillOpacity=0;" parent="1" source="3teilEMe3NR-Mcw97rRl-13" target="3teilEMe3NR-Mcw97rRl-6" edge="1">
          <mxGeometry relative="1" as="geometry" />
        </mxCell>
        <mxCell id="3teilEMe3NR-Mcw97rRl-26" style="rounded=0;orthogonalLoop=1;jettySize=auto;html=1;exitX=0;exitY=0;exitDx=0;exitDy=0;entryX=0.827;entryY=0.936;entryDx=0;entryDy=0;entryPerimeter=0;strokeWidth=3;fontSize=24;fillOpacity=0;" parent="1" source="3teilEMe3NR-Mcw97rRl-15" target="3teilEMe3NR-Mcw97rRl-6" edge="1">
          <mxGeometry relative="1" as="geometry" />
        </mxCell>
        <mxCell id="3teilEMe3NR-Mcw97rRl-27" style="rounded=0;orthogonalLoop=1;jettySize=auto;html=1;exitX=0;exitY=0;exitDx=0;exitDy=0;entryX=0.955;entryY=0.8;entryDx=0;entryDy=0;entryPerimeter=0;strokeWidth=3;fontSize=24;fillOpacity=0;" parent="1" source="3teilEMe3NR-Mcw97rRl-16" target="3teilEMe3NR-Mcw97rRl-6" edge="1">
          <mxGeometry relative="1" as="geometry" />
        </mxCell>
        <mxCell id="3teilEMe3NR-Mcw97rRl-28" style="rounded=0;orthogonalLoop=1;jettySize=auto;html=1;exitX=0.5;exitY=0;exitDx=0;exitDy=0;entryX=0.195;entryY=0.915;entryDx=0;entryDy=0;entryPerimeter=0;strokeWidth=3;fontSize=24;fillOpacity=0;" parent="1" source="3teilEMe3NR-Mcw97rRl-12" target="3teilEMe3NR-Mcw97rRl-11" edge="1">
          <mxGeometry relative="1" as="geometry" />
        </mxCell>
        <mxCell id="3teilEMe3NR-Mcw97rRl-29" style="rounded=0;orthogonalLoop=1;jettySize=auto;html=1;exitX=0.5;exitY=0;exitDx=0;exitDy=0;entryX=0.35;entryY=1;entryDx=0;entryDy=0;entryPerimeter=0;strokeWidth=3;fontSize=24;fillOpacity=0;" parent="1" source="3teilEMe3NR-Mcw97rRl-13" target="3teilEMe3NR-Mcw97rRl-11" edge="1">
          <mxGeometry relative="1" as="geometry" />
        </mxCell>
      </root>
    </mxGraphModel>
  </diagram>
  <diagram id="F8tX2Qj5XxtWgVFOwbQz" name="bfs_attributes">
    <mxGraphModel dx="1434" dy="836" grid="1" gridSize="10" guides="1" tooltips="1" connect="1" arrows="1" fold="1" page="1" pageScale="1" pageWidth="1100" pageHeight="850" math="0" shadow="0">
      <root>
        <mxCell id="0" />
        <mxCell id="1" parent="0" />
        <mxCell id="0VQiHaU-FWIJmjnlks_X-11" value="&lt;span style=&quot;font-family: &amp;quot;Lucida Console&amp;quot;; font-size: 24px;&quot;&gt;adjacent&lt;/span&gt;&lt;div style=&quot;font-family: &amp;quot;Lucida Console&amp;quot;; font-size: 24px;&quot;&gt;List[Vertex]&lt;/div&gt;" style="shape=parallelogram;perimeter=parallelogramPerimeter;whiteSpace=wrap;html=1;fixedSize=1;fillOpacity=1;strokeWidth=3;" vertex="1" parent="1">
          <mxGeometry x="560" y="300" width="240" height="90" as="geometry" />
        </mxCell>
        <mxCell id="0VQiHaU-FWIJmjnlks_X-12" value="&lt;span style=&quot;font-family: &amp;quot;Lucida Console&amp;quot;; font-size: 24px;&quot;&gt;value&lt;/span&gt;" style="shape=parallelogram;perimeter=parallelogramPerimeter;whiteSpace=wrap;html=1;fixedSize=1;fillOpacity=1;strokeWidth=3;" vertex="1" parent="1">
          <mxGeometry x="360" y="300" width="180" height="90" as="geometry" />
        </mxCell>
        <mxCell id="0VQiHaU-FWIJmjnlks_X-13" value="&lt;span style=&quot;font-family: &amp;quot;Lucida Console&amp;quot;; font-size: 24px;&quot;&gt;color&lt;/span&gt;&lt;div style=&quot;font-family: &amp;quot;Lucida Console&amp;quot;; font-size: 24px;&quot;&gt;WHITE | GRAY | BLACK&lt;/div&gt;" style="shape=parallelogram;perimeter=parallelogramPerimeter;whiteSpace=wrap;html=1;fixedSize=1;fillOpacity=1;strokeWidth=3;" vertex="1" parent="1">
          <mxGeometry x="360" y="450" width="440" height="90" as="geometry" />
        </mxCell>
        <mxCell id="0VQiHaU-FWIJmjnlks_X-14" value="&lt;span style=&quot;font-family: &amp;quot;Lucida Console&amp;quot;; font-size: 24px;&quot;&gt;parent&lt;/span&gt;&lt;div style=&quot;font-family: &amp;quot;Lucida Console&amp;quot;; font-size: 24px;&quot;&gt;Vertex&lt;/div&gt;" style="shape=parallelogram;perimeter=parallelogramPerimeter;whiteSpace=wrap;html=1;fixedSize=1;fillOpacity=1;strokeWidth=3;" vertex="1" parent="1">
          <mxGeometry x="360" y="570" width="210" height="90" as="geometry" />
        </mxCell>
        <mxCell id="0VQiHaU-FWIJmjnlks_X-15" value="&lt;span style=&quot;font-family: &amp;quot;Lucida Console&amp;quot;; font-size: 24px;&quot;&gt;depth&lt;/span&gt;&lt;div style=&quot;font-family: &amp;quot;Lucida Console&amp;quot;; font-size: 24px;&quot;&gt;int&lt;/div&gt;" style="shape=parallelogram;perimeter=parallelogramPerimeter;whiteSpace=wrap;html=1;fixedSize=1;fillOpacity=1;strokeWidth=3;" vertex="1" parent="1">
          <mxGeometry x="590" y="570" width="210" height="90" as="geometry" />
        </mxCell>
        <mxCell id="0VQiHaU-FWIJmjnlks_X-17" value="&lt;font style=&quot;font-size: 24px;&quot;&gt;&lt;b&gt;VERTEX&lt;/b&gt;&lt;/font&gt;" style="rounded=0;whiteSpace=wrap;html=1;fontFamily=Helvetica;fillOpacity=1;strokeWidth=3;strokeColor=none;" vertex="1" parent="1">
          <mxGeometry x="160" y="200" width="680" height="60" as="geometry" />
        </mxCell>
        <mxCell id="0VQiHaU-FWIJmjnlks_X-18" value="Default attributes" style="text;html=1;align=left;verticalAlign=middle;whiteSpace=wrap;rounded=0;fontSize=22;fontStyle=0;fontFamily=Verdana;fillOpacity=1;strokeWidth=3;" vertex="1" parent="1">
          <mxGeometry x="200" y="300" width="120" height="90" as="geometry" />
        </mxCell>
        <mxCell id="0VQiHaU-FWIJmjnlks_X-19" value="Additional attributes" style="text;html=1;align=left;verticalAlign=middle;whiteSpace=wrap;rounded=0;fontSize=22;fontStyle=0;fontFamily=Verdana;fillOpacity=1;strokeWidth=3;" vertex="1" parent="1">
          <mxGeometry x="200" y="450" width="120" height="210" as="geometry" />
        </mxCell>
      </root>
    </mxGraphModel>
  </diagram>
  <diagram name="dfs_attributes" id="FOssxjU6VSm-6kDqscqr">
    <mxGraphModel dx="1434" dy="836" grid="1" gridSize="10" guides="1" tooltips="1" connect="1" arrows="1" fold="1" page="1" pageScale="1" pageWidth="1100" pageHeight="850" math="0" shadow="0">
      <root>
        <mxCell id="ta0fOHAFirDKofugiBfk-0" />
        <mxCell id="ta0fOHAFirDKofugiBfk-1" parent="ta0fOHAFirDKofugiBfk-0" />
        <mxCell id="ta0fOHAFirDKofugiBfk-2" value="&lt;span style=&quot;font-family: &amp;quot;Lucida Console&amp;quot;; font-size: 24px;&quot;&gt;adjacent&lt;/span&gt;&lt;div style=&quot;font-family: &amp;quot;Lucida Console&amp;quot;; font-size: 24px;&quot;&gt;List[Vertex]&lt;/div&gt;" style="shape=parallelogram;perimeter=parallelogramPerimeter;whiteSpace=wrap;html=1;fixedSize=1;fillOpacity=1;strokeWidth=3;" vertex="1" parent="ta0fOHAFirDKofugiBfk-1">
          <mxGeometry x="680" y="290" width="240" height="90" as="geometry" />
        </mxCell>
        <mxCell id="ta0fOHAFirDKofugiBfk-3" value="&lt;span style=&quot;font-family: &amp;quot;Lucida Console&amp;quot;; font-size: 24px;&quot;&gt;value&lt;/span&gt;" style="shape=parallelogram;perimeter=parallelogramPerimeter;whiteSpace=wrap;html=1;fixedSize=1;fillOpacity=1;strokeWidth=3;" vertex="1" parent="ta0fOHAFirDKofugiBfk-1">
          <mxGeometry x="480" y="290" width="180" height="90" as="geometry" />
        </mxCell>
        <mxCell id="ta0fOHAFirDKofugiBfk-4" value="&lt;span style=&quot;font-family: &amp;quot;Lucida Console&amp;quot;; font-size: 24px;&quot;&gt;color&lt;/span&gt;&lt;div style=&quot;font-family: &amp;quot;Lucida Console&amp;quot;; font-size: 24px;&quot;&gt;WHITE | GRAY | BLACK&lt;/div&gt;" style="shape=parallelogram;perimeter=parallelogramPerimeter;whiteSpace=wrap;html=1;fixedSize=1;fillOpacity=1;strokeWidth=3;" vertex="1" parent="ta0fOHAFirDKofugiBfk-1">
          <mxGeometry x="480" y="440" width="440" height="90" as="geometry" />
        </mxCell>
        <mxCell id="ta0fOHAFirDKofugiBfk-5" value="&lt;span style=&quot;font-family: &amp;quot;Lucida Console&amp;quot;; font-size: 24px;&quot;&gt;parent&lt;/span&gt;&lt;div style=&quot;font-family: &amp;quot;Lucida Console&amp;quot;; font-size: 24px;&quot;&gt;Vertex&lt;/div&gt;" style="shape=parallelogram;perimeter=parallelogramPerimeter;whiteSpace=wrap;html=1;fixedSize=1;fillOpacity=1;strokeWidth=3;" vertex="1" parent="ta0fOHAFirDKofugiBfk-1">
          <mxGeometry x="360" y="560" width="210" height="90" as="geometry" />
        </mxCell>
        <mxCell id="ta0fOHAFirDKofugiBfk-6" value="&lt;span style=&quot;font-family: &amp;quot;Lucida Console&amp;quot;; font-size: 24px;&quot;&gt;discovered&lt;/span&gt;&lt;div style=&quot;font-family: &amp;quot;Lucida Console&amp;quot;; font-size: 24px;&quot;&gt;int&lt;/div&gt;" style="shape=parallelogram;perimeter=parallelogramPerimeter;whiteSpace=wrap;html=1;fixedSize=1;fillOpacity=1;strokeWidth=3;" vertex="1" parent="ta0fOHAFirDKofugiBfk-1">
          <mxGeometry x="590" y="560" width="210" height="90" as="geometry" />
        </mxCell>
        <mxCell id="ta0fOHAFirDKofugiBfk-7" value="&lt;font style=&quot;font-size: 24px;&quot;&gt;&lt;b&gt;VERTEX&lt;/b&gt;&lt;/font&gt;" style="rounded=0;whiteSpace=wrap;html=1;fontFamily=Helvetica;fillOpacity=1;strokeWidth=3;strokeColor=none;" vertex="1" parent="ta0fOHAFirDKofugiBfk-1">
          <mxGeometry x="280" y="200" width="680" height="40" as="geometry" />
        </mxCell>
        <mxCell id="ta0fOHAFirDKofugiBfk-8" value="Default attributes" style="text;html=1;align=left;verticalAlign=middle;whiteSpace=wrap;rounded=0;fontSize=22;fontStyle=0;fontFamily=Verdana;fillOpacity=1;strokeWidth=3;" vertex="1" parent="ta0fOHAFirDKofugiBfk-1">
          <mxGeometry x="200" y="290" width="120" height="90" as="geometry" />
        </mxCell>
        <mxCell id="ta0fOHAFirDKofugiBfk-9" value="Additional attributes" style="text;html=1;align=left;verticalAlign=middle;whiteSpace=wrap;rounded=0;fontSize=22;fontStyle=0;fontFamily=Verdana;fillOpacity=1;strokeWidth=3;" vertex="1" parent="ta0fOHAFirDKofugiBfk-1">
          <mxGeometry x="200" y="440" width="120" height="210" as="geometry" />
        </mxCell>
        <mxCell id="hWRFWDh2cKDNWXrHgK4n-0" value="&lt;font face=&quot;Lucida Console&quot;&gt;&lt;span style=&quot;font-size: 24px;&quot;&gt;finished&lt;/span&gt;&lt;/font&gt;&lt;br&gt;&lt;div style=&quot;font-family: &amp;quot;Lucida Console&amp;quot;; font-size: 24px;&quot;&gt;int&lt;/div&gt;" style="shape=parallelogram;perimeter=parallelogramPerimeter;whiteSpace=wrap;html=1;fixedSize=1;fillOpacity=1;strokeWidth=3;" vertex="1" parent="ta0fOHAFirDKofugiBfk-1">
          <mxGeometry x="830" y="560" width="210" height="90" as="geometry" />
        </mxCell>
      </root>
    </mxGraphModel>
  </diagram>
  <diagram id="TwkjkFPDBfYgdub-04S9" name="shortest_path">
    <mxGraphModel dx="1434" dy="836" grid="1" gridSize="10" guides="1" tooltips="1" connect="1" arrows="1" fold="1" page="1" pageScale="1" pageWidth="1100" pageHeight="850" math="0" shadow="0">
      <root>
        <mxCell id="0" />
        <mxCell id="1" parent="0" />
        <mxCell id="9uTMqIwEQ7ER2DE-WinW-11" style="rounded=0;orthogonalLoop=1;jettySize=auto;html=1;exitX=0;exitY=0;exitDx=0;exitDy=0;entryX=1;entryY=1;entryDx=0;entryDy=0;endArrow=none;endFill=0;fillOpacity=0;fontSize=24;strokeWidth=3;" edge="1" parent="1" source="9uTMqIwEQ7ER2DE-WinW-1" target="9uTMqIwEQ7ER2DE-WinW-4">
          <mxGeometry relative="1" as="geometry" />
        </mxCell>
        <mxCell id="9uTMqIwEQ7ER2DE-WinW-13" style="rounded=0;orthogonalLoop=1;jettySize=auto;html=1;exitX=0.5;exitY=1;exitDx=0;exitDy=0;entryX=0.5;entryY=0;entryDx=0;entryDy=0;endArrow=none;endFill=0;fillOpacity=0;fontSize=24;strokeWidth=3;" edge="1" parent="1" source="9uTMqIwEQ7ER2DE-WinW-1" target="9uTMqIwEQ7ER2DE-WinW-8">
          <mxGeometry relative="1" as="geometry" />
        </mxCell>
        <mxCell id="9uTMqIwEQ7ER2DE-WinW-1" value="0" style="ellipse;whiteSpace=wrap;html=1;aspect=fixed;fillOpacity=0;fontSize=24;strokeWidth=3;" vertex="1" parent="1">
          <mxGeometry x="410" y="350" width="60" height="60" as="geometry" />
        </mxCell>
        <mxCell id="9uTMqIwEQ7ER2DE-WinW-2" value="SOURCE" style="text;html=1;align=center;verticalAlign=middle;whiteSpace=wrap;rounded=0;fillOpacity=0;fontSize=24;labelBackgroundColor=default;strokeWidth=3;fontFamily=Verdana;" vertex="1" parent="1">
          <mxGeometry x="385" y="400" width="110" height="30" as="geometry" />
        </mxCell>
        <mxCell id="9uTMqIwEQ7ER2DE-WinW-19" style="rounded=0;orthogonalLoop=1;jettySize=auto;html=1;exitX=0;exitY=1;exitDx=0;exitDy=0;entryX=0.5;entryY=0;entryDx=0;entryDy=0;endArrow=none;endFill=0;fillOpacity=0;fontSize=24;strokeWidth=3;" edge="1" parent="1" source="9uTMqIwEQ7ER2DE-WinW-4" target="9uTMqIwEQ7ER2DE-WinW-14">
          <mxGeometry relative="1" as="geometry" />
        </mxCell>
        <mxCell id="9uTMqIwEQ7ER2DE-WinW-4" value="1" style="ellipse;whiteSpace=wrap;html=1;aspect=fixed;fillOpacity=0;fontSize=24;strokeWidth=3;" vertex="1" parent="1">
          <mxGeometry x="310" y="280" width="60" height="60" as="geometry" />
        </mxCell>
        <mxCell id="9uTMqIwEQ7ER2DE-WinW-6" value="1" style="ellipse;whiteSpace=wrap;html=1;aspect=fixed;fillOpacity=0;fontSize=24;strokeWidth=3;" vertex="1" parent="1">
          <mxGeometry x="510" y="270" width="60" height="60" as="geometry" />
        </mxCell>
        <mxCell id="9uTMqIwEQ7ER2DE-WinW-8" value="1" style="ellipse;whiteSpace=wrap;html=1;aspect=fixed;fillOpacity=0;fontSize=24;strokeWidth=3;" vertex="1" parent="1">
          <mxGeometry x="410" y="470" width="60" height="60" as="geometry" />
        </mxCell>
        <mxCell id="9uTMqIwEQ7ER2DE-WinW-12" style="rounded=0;orthogonalLoop=1;jettySize=auto;html=1;exitX=1;exitY=0;exitDx=0;exitDy=0;entryX=0.033;entryY=0.867;entryDx=0;entryDy=0;entryPerimeter=0;endArrow=none;endFill=0;fillOpacity=0;fontSize=24;strokeWidth=3;" edge="1" parent="1" source="9uTMqIwEQ7ER2DE-WinW-1" target="9uTMqIwEQ7ER2DE-WinW-6">
          <mxGeometry relative="1" as="geometry" />
        </mxCell>
        <mxCell id="9uTMqIwEQ7ER2DE-WinW-25" style="rounded=0;orthogonalLoop=1;jettySize=auto;html=1;exitX=1;exitY=1;exitDx=0;exitDy=0;entryX=0;entryY=0.5;entryDx=0;entryDy=0;endArrow=none;endFill=0;fillOpacity=0;fontSize=24;strokeWidth=3;" edge="1" parent="1" source="9uTMqIwEQ7ER2DE-WinW-14" target="9uTMqIwEQ7ER2DE-WinW-8">
          <mxGeometry relative="1" as="geometry" />
        </mxCell>
        <mxCell id="9uTMqIwEQ7ER2DE-WinW-14" value="2" style="ellipse;whiteSpace=wrap;html=1;aspect=fixed;fillOpacity=0;fontSize=24;strokeWidth=3;" vertex="1" parent="1">
          <mxGeometry x="260" y="430" width="60" height="60" as="geometry" />
        </mxCell>
        <mxCell id="9uTMqIwEQ7ER2DE-WinW-26" style="rounded=0;orthogonalLoop=1;jettySize=auto;html=1;exitX=0;exitY=0.5;exitDx=0;exitDy=0;entryX=0.65;entryY=-0.033;entryDx=0;entryDy=0;endArrow=none;endFill=0;entryPerimeter=0;fillOpacity=0;fontSize=24;strokeWidth=3;" edge="1" parent="1" source="9uTMqIwEQ7ER2DE-WinW-15" target="9uTMqIwEQ7ER2DE-WinW-4">
          <mxGeometry relative="1" as="geometry" />
        </mxCell>
        <mxCell id="9uTMqIwEQ7ER2DE-WinW-15" value="2" style="ellipse;whiteSpace=wrap;html=1;aspect=fixed;fillOpacity=0;fontSize=24;strokeWidth=3;" vertex="1" parent="1">
          <mxGeometry x="400" y="180" width="60" height="60" as="geometry" />
        </mxCell>
        <mxCell id="9uTMqIwEQ7ER2DE-WinW-24" style="rounded=0;orthogonalLoop=1;jettySize=auto;html=1;exitX=0;exitY=1;exitDx=0;exitDy=0;entryX=1;entryY=0.5;entryDx=0;entryDy=0;endArrow=none;endFill=0;fillOpacity=0;fontSize=24;strokeWidth=3;" edge="1" parent="1" source="9uTMqIwEQ7ER2DE-WinW-16" target="9uTMqIwEQ7ER2DE-WinW-8">
          <mxGeometry relative="1" as="geometry" />
        </mxCell>
        <mxCell id="9uTMqIwEQ7ER2DE-WinW-16" value="2" style="ellipse;whiteSpace=wrap;html=1;aspect=fixed;fillOpacity=0;fontSize=24;strokeWidth=3;" vertex="1" parent="1">
          <mxGeometry x="550" y="420" width="60" height="60" as="geometry" />
        </mxCell>
        <mxCell id="9uTMqIwEQ7ER2DE-WinW-23" style="rounded=0;orthogonalLoop=1;jettySize=auto;html=1;exitX=0.5;exitY=0;exitDx=0;exitDy=0;entryX=0.7;entryY=1.033;entryDx=0;entryDy=0;entryPerimeter=0;endArrow=none;endFill=0;fillOpacity=0;fontSize=24;strokeWidth=3;" edge="1" parent="1" source="9uTMqIwEQ7ER2DE-WinW-16" target="9uTMqIwEQ7ER2DE-WinW-6">
          <mxGeometry relative="1" as="geometry" />
        </mxCell>
        <mxCell id="9uTMqIwEQ7ER2DE-WinW-27" style="rounded=0;orthogonalLoop=1;jettySize=auto;html=1;exitX=1;exitY=0.5;exitDx=0;exitDy=0;entryX=0.233;entryY=0.017;entryDx=0;entryDy=0;entryPerimeter=0;endArrow=none;endFill=0;fillOpacity=0;fontSize=24;strokeWidth=3;" edge="1" parent="1" source="9uTMqIwEQ7ER2DE-WinW-15" target="9uTMqIwEQ7ER2DE-WinW-6">
          <mxGeometry relative="1" as="geometry" />
        </mxCell>
        <mxCell id="9uTMqIwEQ7ER2DE-WinW-33" style="rounded=0;orthogonalLoop=1;jettySize=auto;html=1;exitX=0.5;exitY=1;exitDx=0;exitDy=0;entryX=1;entryY=0;entryDx=0;entryDy=0;endArrow=none;endFill=0;fillOpacity=0;fontSize=24;strokeWidth=3;" edge="1" parent="1" source="9uTMqIwEQ7ER2DE-WinW-28" target="9uTMqIwEQ7ER2DE-WinW-16">
          <mxGeometry relative="1" as="geometry" />
        </mxCell>
        <mxCell id="9uTMqIwEQ7ER2DE-WinW-28" value="3" style="ellipse;whiteSpace=wrap;html=1;aspect=fixed;fillOpacity=0;fontSize=24;strokeWidth=3;" vertex="1" parent="1">
          <mxGeometry x="580" y="140" width="60" height="60" as="geometry" />
        </mxCell>
        <mxCell id="9uTMqIwEQ7ER2DE-WinW-29" value="3" style="ellipse;whiteSpace=wrap;html=1;aspect=fixed;fillOpacity=0;fontSize=24;strokeWidth=3;" vertex="1" parent="1">
          <mxGeometry x="680" y="230" width="60" height="60" as="geometry" />
        </mxCell>
        <mxCell id="9uTMqIwEQ7ER2DE-WinW-30" style="rounded=0;orthogonalLoop=1;jettySize=auto;html=1;exitX=1;exitY=0;exitDx=0;exitDy=0;entryX=0;entryY=0.5;entryDx=0;entryDy=0;endArrow=none;endFill=0;fillOpacity=0;fontSize=24;strokeWidth=3;" edge="1" parent="1" source="9uTMqIwEQ7ER2DE-WinW-15" target="9uTMqIwEQ7ER2DE-WinW-28">
          <mxGeometry relative="1" as="geometry" />
        </mxCell>
        <mxCell id="9uTMqIwEQ7ER2DE-WinW-31" style="rounded=0;orthogonalLoop=1;jettySize=auto;html=1;exitX=0;exitY=0.5;exitDx=0;exitDy=0;entryX=1;entryY=0.367;entryDx=0;entryDy=0;entryPerimeter=0;endArrow=none;endFill=0;fillOpacity=0;fontSize=24;strokeWidth=3;" edge="1" parent="1" source="9uTMqIwEQ7ER2DE-WinW-29" target="9uTMqIwEQ7ER2DE-WinW-15">
          <mxGeometry relative="1" as="geometry" />
        </mxCell>
        <mxCell id="9uTMqIwEQ7ER2DE-WinW-32" style="rounded=0;orthogonalLoop=1;jettySize=auto;html=1;exitX=0.967;exitY=0.65;exitDx=0;exitDy=0;entryX=0.267;entryY=0.05;entryDx=0;entryDy=0;entryPerimeter=0;endArrow=none;endFill=0;exitPerimeter=0;fillOpacity=0;fontSize=24;strokeWidth=3;" edge="1" parent="1" source="9uTMqIwEQ7ER2DE-WinW-28" target="9uTMqIwEQ7ER2DE-WinW-29">
          <mxGeometry relative="1" as="geometry" />
        </mxCell>
      </root>
    </mxGraphModel>
  </diagram>
  <diagram id="iyiUHebn1hZWNoZOuYgt" name="parenthesis_structure">
    <mxGraphModel dx="1434" dy="836" grid="1" gridSize="10" guides="1" tooltips="1" connect="1" arrows="1" fold="1" page="1" pageScale="1" pageWidth="1100" pageHeight="850" math="0" shadow="0">
      <root>
        <mxCell id="0" />
        <mxCell id="1" parent="0" />
        <mxCell id="4f5qZ1VG7d1lo1wWikn_-88" style="edgeStyle=orthogonalEdgeStyle;rounded=0;orthogonalLoop=1;jettySize=auto;html=1;exitX=0.5;exitY=1;exitDx=0;exitDy=0;strokeWidth=3;fillOpacity=0;fontSize=20;fontFamily=Verdana;" edge="1" parent="1" source="4f5qZ1VG7d1lo1wWikn_-1">
          <mxGeometry relative="1" as="geometry">
            <mxPoint x="190" y="280" as="targetPoint" />
          </mxGeometry>
        </mxCell>
        <mxCell id="4f5qZ1VG7d1lo1wWikn_-1" value="" style="ellipse;whiteSpace=wrap;html=1;strokeWidth=3;fillOpacity=0;fontSize=20;fontFamily=Verdana;" vertex="1" parent="1">
          <mxGeometry x="140" y="120" width="100" height="80" as="geometry" />
        </mxCell>
        <mxCell id="4f5qZ1VG7d1lo1wWikn_-10" value="3" style="text;html=1;align=center;verticalAlign=middle;whiteSpace=wrap;rounded=0;strokeWidth=3;fillOpacity=0;fontSize=20;fontFamily=Verdana;" vertex="1" parent="1">
          <mxGeometry x="140" y="140" width="50" height="40" as="geometry" />
        </mxCell>
        <mxCell id="4f5qZ1VG7d1lo1wWikn_-11" value="6" style="text;html=1;align=center;verticalAlign=middle;whiteSpace=wrap;rounded=0;strokeWidth=3;fillOpacity=0;fontSize=20;fontFamily=Verdana;" vertex="1" parent="1">
          <mxGeometry x="190" y="140" width="50" height="40" as="geometry" />
        </mxCell>
        <mxCell id="4f5qZ1VG7d1lo1wWikn_-12" value="" style="endArrow=none;html=1;rounded=0;entryX=0.5;entryY=0;entryDx=0;entryDy=0;exitX=0.5;exitY=1;exitDx=0;exitDy=0;strokeWidth=3;fillOpacity=0;fontSize=20;fontFamily=Verdana;" edge="1" parent="1" source="4f5qZ1VG7d1lo1wWikn_-1" target="4f5qZ1VG7d1lo1wWikn_-1">
          <mxGeometry width="50" height="50" relative="1" as="geometry">
            <mxPoint x="160" y="300" as="sourcePoint" />
            <mxPoint x="210" y="250" as="targetPoint" />
          </mxGeometry>
        </mxCell>
        <mxCell id="4f5qZ1VG7d1lo1wWikn_-41" value="Y" style="text;html=1;align=center;verticalAlign=middle;whiteSpace=wrap;rounded=0;strokeWidth=3;fillOpacity=0;fontSize=20;fontFamily=Verdana;" vertex="1" parent="1">
          <mxGeometry x="170" y="80" width="40" height="40" as="geometry" />
        </mxCell>
        <mxCell id="4f5qZ1VG7d1lo1wWikn_-42" value="" style="ellipse;whiteSpace=wrap;html=1;strokeWidth=3;fillOpacity=0;fontSize=20;fontFamily=Verdana;" vertex="1" parent="1">
          <mxGeometry x="140" y="280" width="100" height="80" as="geometry" />
        </mxCell>
        <mxCell id="4f5qZ1VG7d1lo1wWikn_-43" value="4" style="text;html=1;align=center;verticalAlign=middle;whiteSpace=wrap;rounded=0;strokeWidth=3;fillOpacity=0;fontSize=20;fontFamily=Verdana;" vertex="1" parent="1">
          <mxGeometry x="140" y="300" width="50" height="40" as="geometry" />
        </mxCell>
        <mxCell id="4f5qZ1VG7d1lo1wWikn_-44" value="5" style="text;html=1;align=center;verticalAlign=middle;whiteSpace=wrap;rounded=0;strokeWidth=3;fillOpacity=0;fontSize=20;fontFamily=Verdana;" vertex="1" parent="1">
          <mxGeometry x="190" y="300" width="50" height="40" as="geometry" />
        </mxCell>
        <mxCell id="4f5qZ1VG7d1lo1wWikn_-45" value="" style="endArrow=none;html=1;rounded=0;entryX=0.5;entryY=0;entryDx=0;entryDy=0;exitX=0.5;exitY=1;exitDx=0;exitDy=0;strokeWidth=3;fillOpacity=0;fontSize=20;fontFamily=Verdana;" edge="1" parent="1" source="4f5qZ1VG7d1lo1wWikn_-42" target="4f5qZ1VG7d1lo1wWikn_-42">
          <mxGeometry width="50" height="50" relative="1" as="geometry">
            <mxPoint x="160" y="460" as="sourcePoint" />
            <mxPoint x="210" y="410" as="targetPoint" />
          </mxGeometry>
        </mxCell>
        <mxCell id="4f5qZ1VG7d1lo1wWikn_-46" value="X" style="text;html=1;align=center;verticalAlign=middle;whiteSpace=wrap;rounded=0;strokeWidth=3;fillOpacity=0;fontSize=20;fontFamily=Verdana;" vertex="1" parent="1">
          <mxGeometry x="170" y="360" width="40" height="40" as="geometry" />
        </mxCell>
        <mxCell id="4f5qZ1VG7d1lo1wWikn_-87" style="edgeStyle=orthogonalEdgeStyle;rounded=0;orthogonalLoop=1;jettySize=auto;html=1;exitX=0;exitY=0.5;exitDx=0;exitDy=0;entryX=1;entryY=0.5;entryDx=0;entryDy=0;strokeWidth=3;fillOpacity=0;fontSize=20;fontFamily=Verdana;" edge="1" parent="1" source="4f5qZ1VG7d1lo1wWikn_-47" target="4f5qZ1VG7d1lo1wWikn_-1">
          <mxGeometry relative="1" as="geometry" />
        </mxCell>
        <mxCell id="4f5qZ1VG7d1lo1wWikn_-92" style="edgeStyle=orthogonalEdgeStyle;rounded=0;orthogonalLoop=1;jettySize=auto;html=1;exitX=0.5;exitY=1;exitDx=0;exitDy=0;strokeWidth=3;fillOpacity=0;fontSize=20;fontFamily=Verdana;" edge="1" parent="1" source="4f5qZ1VG7d1lo1wWikn_-47">
          <mxGeometry relative="1" as="geometry">
            <mxPoint x="400" y="280" as="targetPoint" />
          </mxGeometry>
        </mxCell>
        <mxCell id="4f5qZ1VG7d1lo1wWikn_-47" value="" style="ellipse;whiteSpace=wrap;html=1;strokeWidth=3;fillOpacity=0;fontSize=20;fontFamily=Verdana;" vertex="1" parent="1">
          <mxGeometry x="350" y="120" width="100" height="80" as="geometry" />
        </mxCell>
        <mxCell id="4f5qZ1VG7d1lo1wWikn_-48" value="2" style="text;html=1;align=center;verticalAlign=middle;whiteSpace=wrap;rounded=0;strokeWidth=3;fillOpacity=0;fontSize=20;fontFamily=Verdana;" vertex="1" parent="1">
          <mxGeometry x="350" y="140" width="50" height="40" as="geometry" />
        </mxCell>
        <mxCell id="4f5qZ1VG7d1lo1wWikn_-49" value="9" style="text;html=1;align=center;verticalAlign=middle;whiteSpace=wrap;rounded=0;strokeWidth=3;fillOpacity=0;fontSize=20;fontFamily=Verdana;" vertex="1" parent="1">
          <mxGeometry x="400" y="140" width="50" height="40" as="geometry" />
        </mxCell>
        <mxCell id="4f5qZ1VG7d1lo1wWikn_-50" value="" style="endArrow=none;html=1;rounded=0;entryX=0.5;entryY=0;entryDx=0;entryDy=0;exitX=0.5;exitY=1;exitDx=0;exitDy=0;strokeWidth=3;fillOpacity=0;fontSize=20;fontFamily=Verdana;" edge="1" parent="1" source="4f5qZ1VG7d1lo1wWikn_-47" target="4f5qZ1VG7d1lo1wWikn_-47">
          <mxGeometry width="50" height="50" relative="1" as="geometry">
            <mxPoint x="370" y="300" as="sourcePoint" />
            <mxPoint x="420" y="250" as="targetPoint" />
          </mxGeometry>
        </mxCell>
        <mxCell id="4f5qZ1VG7d1lo1wWikn_-51" value="Z" style="text;html=1;align=center;verticalAlign=middle;whiteSpace=wrap;rounded=0;strokeWidth=3;fillOpacity=0;fontSize=20;fontFamily=Verdana;" vertex="1" parent="1">
          <mxGeometry x="380" y="80" width="40" height="40" as="geometry" />
        </mxCell>
        <mxCell id="4f5qZ1VG7d1lo1wWikn_-89" style="edgeStyle=orthogonalEdgeStyle;rounded=0;orthogonalLoop=1;jettySize=auto;html=1;exitX=0;exitY=0.5;exitDx=0;exitDy=0;entryX=1;entryY=0.5;entryDx=0;entryDy=0;strokeWidth=3;fillOpacity=0;fontSize=20;fontFamily=Verdana;" edge="1" parent="1" source="4f5qZ1VG7d1lo1wWikn_-52" target="4f5qZ1VG7d1lo1wWikn_-42">
          <mxGeometry relative="1" as="geometry" />
        </mxCell>
        <mxCell id="4f5qZ1VG7d1lo1wWikn_-52" value="" style="ellipse;whiteSpace=wrap;html=1;strokeWidth=3;fillOpacity=0;fontSize=20;fontFamily=Verdana;" vertex="1" parent="1">
          <mxGeometry x="350" y="280" width="100" height="80" as="geometry" />
        </mxCell>
        <mxCell id="4f5qZ1VG7d1lo1wWikn_-53" value="7" style="text;html=1;align=center;verticalAlign=middle;whiteSpace=wrap;rounded=0;strokeWidth=3;fillOpacity=0;fontSize=20;fontFamily=Verdana;" vertex="1" parent="1">
          <mxGeometry x="350" y="300" width="50" height="40" as="geometry" />
        </mxCell>
        <mxCell id="4f5qZ1VG7d1lo1wWikn_-54" value="8" style="text;html=1;align=center;verticalAlign=middle;whiteSpace=wrap;rounded=0;strokeWidth=3;fillOpacity=0;fontSize=20;fontFamily=Verdana;" vertex="1" parent="1">
          <mxGeometry x="400" y="300" width="50" height="40" as="geometry" />
        </mxCell>
        <mxCell id="4f5qZ1VG7d1lo1wWikn_-55" value="" style="endArrow=none;html=1;rounded=0;entryX=0.5;entryY=0;entryDx=0;entryDy=0;exitX=0.5;exitY=1;exitDx=0;exitDy=0;strokeWidth=3;fillOpacity=0;fontSize=20;fontFamily=Verdana;" edge="1" parent="1" source="4f5qZ1VG7d1lo1wWikn_-52" target="4f5qZ1VG7d1lo1wWikn_-52">
          <mxGeometry width="50" height="50" relative="1" as="geometry">
            <mxPoint x="370" y="460" as="sourcePoint" />
            <mxPoint x="420" y="410" as="targetPoint" />
          </mxGeometry>
        </mxCell>
        <mxCell id="4f5qZ1VG7d1lo1wWikn_-56" value="W" style="text;html=1;align=center;verticalAlign=middle;whiteSpace=wrap;rounded=0;strokeWidth=3;fillOpacity=0;fontSize=20;fontFamily=Verdana;" vertex="1" parent="1">
          <mxGeometry x="380" y="360" width="40" height="40" as="geometry" />
        </mxCell>
        <mxCell id="4f5qZ1VG7d1lo1wWikn_-93" style="rounded=0;orthogonalLoop=1;jettySize=auto;html=1;exitX=0;exitY=1;exitDx=0;exitDy=0;entryX=1;entryY=0;entryDx=0;entryDy=0;strokeWidth=3;fillOpacity=0;fontSize=20;fontFamily=Verdana;" edge="1" parent="1" source="4f5qZ1VG7d1lo1wWikn_-67" target="4f5qZ1VG7d1lo1wWikn_-52">
          <mxGeometry relative="1" as="geometry" />
        </mxCell>
        <mxCell id="4f5qZ1VG7d1lo1wWikn_-95" style="edgeStyle=orthogonalEdgeStyle;rounded=0;orthogonalLoop=1;jettySize=auto;html=1;exitX=0;exitY=0.5;exitDx=0;exitDy=0;entryX=1;entryY=0.5;entryDx=0;entryDy=0;strokeWidth=3;fillOpacity=0;fontSize=20;fontFamily=Verdana;" edge="1" parent="1" source="4f5qZ1VG7d1lo1wWikn_-67" target="4f5qZ1VG7d1lo1wWikn_-47">
          <mxGeometry relative="1" as="geometry" />
        </mxCell>
        <mxCell id="4f5qZ1VG7d1lo1wWikn_-67" value="" style="ellipse;whiteSpace=wrap;html=1;strokeWidth=3;fillOpacity=0;fontSize=20;fontFamily=Verdana;" vertex="1" parent="1">
          <mxGeometry x="550" y="120" width="100" height="80" as="geometry" />
        </mxCell>
        <mxCell id="4f5qZ1VG7d1lo1wWikn_-68" value="1" style="text;html=1;align=center;verticalAlign=middle;whiteSpace=wrap;rounded=0;strokeWidth=3;fillOpacity=0;fontSize=20;fontFamily=Verdana;" vertex="1" parent="1">
          <mxGeometry x="550" y="140" width="50" height="40" as="geometry" />
        </mxCell>
        <mxCell id="4f5qZ1VG7d1lo1wWikn_-69" value="10" style="text;html=1;align=center;verticalAlign=middle;whiteSpace=wrap;rounded=0;strokeWidth=3;fillOpacity=0;fontSize=20;fontFamily=Verdana;" vertex="1" parent="1">
          <mxGeometry x="600" y="140" width="50" height="40" as="geometry" />
        </mxCell>
        <mxCell id="4f5qZ1VG7d1lo1wWikn_-70" value="" style="endArrow=none;html=1;rounded=0;entryX=0.5;entryY=0;entryDx=0;entryDy=0;exitX=0.5;exitY=1;exitDx=0;exitDy=0;strokeWidth=3;fillOpacity=0;fontSize=20;fontFamily=Verdana;" edge="1" parent="1" source="4f5qZ1VG7d1lo1wWikn_-67" target="4f5qZ1VG7d1lo1wWikn_-67">
          <mxGeometry width="50" height="50" relative="1" as="geometry">
            <mxPoint x="570" y="300" as="sourcePoint" />
            <mxPoint x="620" y="250" as="targetPoint" />
          </mxGeometry>
        </mxCell>
        <mxCell id="4f5qZ1VG7d1lo1wWikn_-71" value="S" style="text;html=1;align=center;verticalAlign=middle;whiteSpace=wrap;rounded=0;strokeWidth=3;fillOpacity=0;fontSize=20;fontFamily=Verdana;" vertex="1" parent="1">
          <mxGeometry x="580" y="80" width="40" height="40" as="geometry" />
        </mxCell>
        <mxCell id="4f5qZ1VG7d1lo1wWikn_-94" style="edgeStyle=orthogonalEdgeStyle;rounded=0;orthogonalLoop=1;jettySize=auto;html=1;exitX=0;exitY=0.5;exitDx=0;exitDy=0;entryX=1;entryY=0.5;entryDx=0;entryDy=0;strokeWidth=3;fillOpacity=0;fontSize=20;fontFamily=Verdana;" edge="1" parent="1" source="4f5qZ1VG7d1lo1wWikn_-72" target="4f5qZ1VG7d1lo1wWikn_-52">
          <mxGeometry relative="1" as="geometry" />
        </mxCell>
        <mxCell id="4f5qZ1VG7d1lo1wWikn_-96" style="edgeStyle=orthogonalEdgeStyle;rounded=0;orthogonalLoop=1;jettySize=auto;html=1;exitX=0.5;exitY=0;exitDx=0;exitDy=0;strokeWidth=3;fillOpacity=0;fontSize=20;fontFamily=Verdana;" edge="1" parent="1" source="4f5qZ1VG7d1lo1wWikn_-72">
          <mxGeometry relative="1" as="geometry">
            <mxPoint x="600" y="200" as="targetPoint" />
          </mxGeometry>
        </mxCell>
        <mxCell id="4f5qZ1VG7d1lo1wWikn_-72" value="" style="ellipse;whiteSpace=wrap;html=1;strokeWidth=3;fillOpacity=0;fontSize=20;fontFamily=Verdana;" vertex="1" parent="1">
          <mxGeometry x="550" y="280" width="100" height="80" as="geometry" />
        </mxCell>
        <mxCell id="4f5qZ1VG7d1lo1wWikn_-73" value="12" style="text;html=1;align=center;verticalAlign=middle;whiteSpace=wrap;rounded=0;strokeWidth=3;fillOpacity=0;fontSize=20;fontFamily=Verdana;" vertex="1" parent="1">
          <mxGeometry x="550" y="300" width="50" height="40" as="geometry" />
        </mxCell>
        <mxCell id="4f5qZ1VG7d1lo1wWikn_-74" value="13" style="text;html=1;align=center;verticalAlign=middle;whiteSpace=wrap;rounded=0;strokeWidth=3;fillOpacity=0;fontSize=20;fontFamily=Verdana;" vertex="1" parent="1">
          <mxGeometry x="600" y="300" width="50" height="40" as="geometry" />
        </mxCell>
        <mxCell id="4f5qZ1VG7d1lo1wWikn_-75" value="" style="endArrow=none;html=1;rounded=0;entryX=0.5;entryY=0;entryDx=0;entryDy=0;exitX=0.5;exitY=1;exitDx=0;exitDy=0;strokeWidth=3;fillOpacity=0;fontSize=20;fontFamily=Verdana;" edge="1" parent="1" source="4f5qZ1VG7d1lo1wWikn_-72" target="4f5qZ1VG7d1lo1wWikn_-72">
          <mxGeometry width="50" height="50" relative="1" as="geometry">
            <mxPoint x="570" y="460" as="sourcePoint" />
            <mxPoint x="620" y="410" as="targetPoint" />
          </mxGeometry>
        </mxCell>
        <mxCell id="4f5qZ1VG7d1lo1wWikn_-76" value="V" style="text;html=1;align=center;verticalAlign=middle;whiteSpace=wrap;rounded=0;strokeWidth=3;fillOpacity=0;fontSize=20;fontFamily=Verdana;" vertex="1" parent="1">
          <mxGeometry x="580" y="360" width="40" height="40" as="geometry" />
        </mxCell>
        <mxCell id="4f5qZ1VG7d1lo1wWikn_-97" style="rounded=0;orthogonalLoop=1;jettySize=auto;html=1;exitX=0;exitY=1;exitDx=0;exitDy=0;entryX=1;entryY=0;entryDx=0;entryDy=0;strokeWidth=3;fillOpacity=0;fontSize=20;fontFamily=Verdana;" edge="1" parent="1" source="4f5qZ1VG7d1lo1wWikn_-77" target="4f5qZ1VG7d1lo1wWikn_-72">
          <mxGeometry relative="1" as="geometry" />
        </mxCell>
        <mxCell id="4f5qZ1VG7d1lo1wWikn_-77" value="" style="ellipse;whiteSpace=wrap;html=1;strokeWidth=3;fillOpacity=0;fontSize=20;fontFamily=Verdana;" vertex="1" parent="1">
          <mxGeometry x="730" y="120" width="100" height="80" as="geometry" />
        </mxCell>
        <mxCell id="4f5qZ1VG7d1lo1wWikn_-78" value="11" style="text;html=1;align=center;verticalAlign=middle;whiteSpace=wrap;rounded=0;strokeWidth=3;fillOpacity=0;fontSize=20;fontFamily=Verdana;" vertex="1" parent="1">
          <mxGeometry x="730" y="140" width="50" height="40" as="geometry" />
        </mxCell>
        <mxCell id="4f5qZ1VG7d1lo1wWikn_-79" value="16" style="text;html=1;align=center;verticalAlign=middle;whiteSpace=wrap;rounded=0;strokeWidth=3;fillOpacity=0;fontSize=20;fontFamily=Verdana;" vertex="1" parent="1">
          <mxGeometry x="780" y="140" width="50" height="40" as="geometry" />
        </mxCell>
        <mxCell id="4f5qZ1VG7d1lo1wWikn_-80" value="" style="endArrow=none;html=1;rounded=0;entryX=0.5;entryY=0;entryDx=0;entryDy=0;exitX=0.5;exitY=1;exitDx=0;exitDy=0;strokeWidth=3;fillOpacity=0;fontSize=20;fontFamily=Verdana;" edge="1" parent="1" source="4f5qZ1VG7d1lo1wWikn_-77" target="4f5qZ1VG7d1lo1wWikn_-77">
          <mxGeometry width="50" height="50" relative="1" as="geometry">
            <mxPoint x="750" y="300" as="sourcePoint" />
            <mxPoint x="800" y="250" as="targetPoint" />
          </mxGeometry>
        </mxCell>
        <mxCell id="4f5qZ1VG7d1lo1wWikn_-81" value="T" style="text;html=1;align=center;verticalAlign=middle;whiteSpace=wrap;rounded=0;strokeWidth=3;fillOpacity=0;fontSize=20;fontFamily=Verdana;" vertex="1" parent="1">
          <mxGeometry x="760" y="80" width="40" height="40" as="geometry" />
        </mxCell>
        <mxCell id="4f5qZ1VG7d1lo1wWikn_-98" style="edgeStyle=orthogonalEdgeStyle;rounded=0;orthogonalLoop=1;jettySize=auto;html=1;exitX=0;exitY=0.5;exitDx=0;exitDy=0;entryX=1;entryY=0.5;entryDx=0;entryDy=0;strokeWidth=3;fillOpacity=0;fontSize=20;fontFamily=Verdana;" edge="1" parent="1" source="4f5qZ1VG7d1lo1wWikn_-82" target="4f5qZ1VG7d1lo1wWikn_-72">
          <mxGeometry relative="1" as="geometry" />
        </mxCell>
        <mxCell id="4f5qZ1VG7d1lo1wWikn_-100" style="rounded=0;orthogonalLoop=1;jettySize=auto;html=1;entryX=0.558;entryY=1;entryDx=0;entryDy=0;entryPerimeter=0;exitX=0.558;exitY=-0.05;exitDx=0;exitDy=0;exitPerimeter=0;strokeWidth=3;fillOpacity=0;fontSize=20;fontFamily=Verdana;" edge="1" parent="1" source="4f5qZ1VG7d1lo1wWikn_-82" target="4f5qZ1VG7d1lo1wWikn_-77">
          <mxGeometry relative="1" as="geometry">
            <mxPoint x="780" y="200" as="targetPoint" />
            <mxPoint x="787" y="270" as="sourcePoint" />
          </mxGeometry>
        </mxCell>
        <mxCell id="4f5qZ1VG7d1lo1wWikn_-82" value="" style="ellipse;whiteSpace=wrap;html=1;strokeWidth=3;fillOpacity=0;fontSize=20;fontFamily=Verdana;" vertex="1" parent="1">
          <mxGeometry x="730" y="280" width="100" height="80" as="geometry" />
        </mxCell>
        <mxCell id="4f5qZ1VG7d1lo1wWikn_-83" value="14" style="text;html=1;align=center;verticalAlign=middle;whiteSpace=wrap;rounded=0;strokeWidth=3;fillOpacity=0;fontSize=20;fontFamily=Verdana;" vertex="1" parent="1">
          <mxGeometry x="730" y="300" width="50" height="40" as="geometry" />
        </mxCell>
        <mxCell id="4f5qZ1VG7d1lo1wWikn_-84" value="15" style="text;html=1;align=center;verticalAlign=middle;whiteSpace=wrap;rounded=0;strokeWidth=3;fillOpacity=0;fontSize=20;fontFamily=Verdana;" vertex="1" parent="1">
          <mxGeometry x="780" y="300" width="50" height="40" as="geometry" />
        </mxCell>
        <mxCell id="4f5qZ1VG7d1lo1wWikn_-85" value="" style="endArrow=none;html=1;rounded=0;entryX=0.5;entryY=0;entryDx=0;entryDy=0;exitX=0.5;exitY=1;exitDx=0;exitDy=0;strokeWidth=3;fillOpacity=0;fontSize=20;fontFamily=Verdana;" edge="1" parent="1" source="4f5qZ1VG7d1lo1wWikn_-82" target="4f5qZ1VG7d1lo1wWikn_-82">
          <mxGeometry width="50" height="50" relative="1" as="geometry">
            <mxPoint x="750" y="460" as="sourcePoint" />
            <mxPoint x="800" y="410" as="targetPoint" />
          </mxGeometry>
        </mxCell>
        <mxCell id="4f5qZ1VG7d1lo1wWikn_-86" value="U" style="text;html=1;align=center;verticalAlign=middle;whiteSpace=wrap;rounded=0;strokeWidth=3;fillOpacity=0;fontSize=20;fontFamily=Verdana;" vertex="1" parent="1">
          <mxGeometry x="760" y="360" width="40" height="40" as="geometry" />
        </mxCell>
        <mxCell id="4f5qZ1VG7d1lo1wWikn_-90" style="rounded=0;orthogonalLoop=1;jettySize=auto;html=1;exitX=1;exitY=0;exitDx=0;exitDy=0;entryX=0;entryY=1;entryDx=0;entryDy=0;strokeWidth=3;fillOpacity=0;fontSize=20;fontFamily=Verdana;" edge="1" parent="1" source="4f5qZ1VG7d1lo1wWikn_-42" target="4f5qZ1VG7d1lo1wWikn_-47">
          <mxGeometry relative="1" as="geometry" />
        </mxCell>
        <mxCell id="4f5qZ1VG7d1lo1wWikn_-99" style="rounded=0;orthogonalLoop=1;jettySize=auto;html=1;strokeWidth=3;fillOpacity=0;fontSize=20;fontFamily=Verdana;" edge="1" parent="1">
          <mxGeometry relative="1" as="geometry">
            <mxPoint x="770" y="199" as="sourcePoint" />
            <mxPoint x="770" y="280" as="targetPoint" />
          </mxGeometry>
        </mxCell>
        <mxCell id="4f5qZ1VG7d1lo1wWikn_-101" value="1" style="text;html=1;align=center;verticalAlign=middle;whiteSpace=wrap;rounded=0;fontSize=18;fontFamily=Verdana;" vertex="1" parent="1">
          <mxGeometry x="160" y="425" width="40" height="40" as="geometry" />
        </mxCell>
        <mxCell id="4f5qZ1VG7d1lo1wWikn_-102" value="(S" style="text;html=1;align=center;verticalAlign=middle;whiteSpace=wrap;rounded=0;fontSize=18;fontFamily=Verdana;" vertex="1" parent="1">
          <mxGeometry x="160" y="465" width="40" height="40" as="geometry" />
        </mxCell>
        <mxCell id="4f5qZ1VG7d1lo1wWikn_-103" value="2" style="text;html=1;align=center;verticalAlign=middle;whiteSpace=wrap;rounded=0;fontSize=18;fontFamily=Verdana;" vertex="1" parent="1">
          <mxGeometry x="200" y="425" width="40" height="40" as="geometry" />
        </mxCell>
        <mxCell id="4f5qZ1VG7d1lo1wWikn_-104" value="(Z" style="text;html=1;align=center;verticalAlign=middle;whiteSpace=wrap;rounded=0;fontSize=18;fontFamily=Verdana;" vertex="1" parent="1">
          <mxGeometry x="200" y="465" width="40" height="40" as="geometry" />
        </mxCell>
        <mxCell id="4f5qZ1VG7d1lo1wWikn_-105" value="3" style="text;html=1;align=center;verticalAlign=middle;whiteSpace=wrap;rounded=0;fontSize=18;fontFamily=Verdana;" vertex="1" parent="1">
          <mxGeometry x="240" y="425" width="40" height="40" as="geometry" />
        </mxCell>
        <mxCell id="4f5qZ1VG7d1lo1wWikn_-106" value="(Y" style="text;html=1;align=center;verticalAlign=middle;whiteSpace=wrap;rounded=0;fontSize=18;fontFamily=Verdana;" vertex="1" parent="1">
          <mxGeometry x="240" y="465" width="40" height="40" as="geometry" />
        </mxCell>
        <mxCell id="4f5qZ1VG7d1lo1wWikn_-107" value="4" style="text;html=1;align=center;verticalAlign=middle;whiteSpace=wrap;rounded=0;fontSize=18;fontFamily=Verdana;" vertex="1" parent="1">
          <mxGeometry x="280" y="425" width="40" height="40" as="geometry" />
        </mxCell>
        <mxCell id="4f5qZ1VG7d1lo1wWikn_-108" value="(X" style="text;html=1;align=center;verticalAlign=middle;whiteSpace=wrap;rounded=0;fontSize=18;fontFamily=Verdana;" vertex="1" parent="1">
          <mxGeometry x="280" y="465" width="40" height="40" as="geometry" />
        </mxCell>
        <mxCell id="4f5qZ1VG7d1lo1wWikn_-109" value="5" style="text;html=1;align=center;verticalAlign=middle;whiteSpace=wrap;rounded=0;fontSize=18;fontFamily=Verdana;" vertex="1" parent="1">
          <mxGeometry x="320" y="425" width="40" height="40" as="geometry" />
        </mxCell>
        <mxCell id="4f5qZ1VG7d1lo1wWikn_-110" value="X)" style="text;html=1;align=center;verticalAlign=middle;whiteSpace=wrap;rounded=0;fontSize=18;fontFamily=Verdana;" vertex="1" parent="1">
          <mxGeometry x="320" y="465" width="40" height="40" as="geometry" />
        </mxCell>
        <mxCell id="4f5qZ1VG7d1lo1wWikn_-111" value="6" style="text;html=1;align=center;verticalAlign=middle;whiteSpace=wrap;rounded=0;fontSize=18;fontFamily=Verdana;" vertex="1" parent="1">
          <mxGeometry x="360" y="425" width="40" height="40" as="geometry" />
        </mxCell>
        <mxCell id="4f5qZ1VG7d1lo1wWikn_-112" value="Y)" style="text;html=1;align=center;verticalAlign=middle;whiteSpace=wrap;rounded=0;fontSize=18;fontFamily=Verdana;" vertex="1" parent="1">
          <mxGeometry x="360" y="465" width="40" height="40" as="geometry" />
        </mxCell>
        <mxCell id="4f5qZ1VG7d1lo1wWikn_-113" value="7" style="text;html=1;align=center;verticalAlign=middle;whiteSpace=wrap;rounded=0;fontSize=18;fontFamily=Verdana;" vertex="1" parent="1">
          <mxGeometry x="400" y="425" width="40" height="40" as="geometry" />
        </mxCell>
        <mxCell id="4f5qZ1VG7d1lo1wWikn_-114" value="(W" style="text;html=1;align=center;verticalAlign=middle;whiteSpace=wrap;rounded=0;fontSize=18;fontFamily=Verdana;" vertex="1" parent="1">
          <mxGeometry x="400" y="465" width="40" height="40" as="geometry" />
        </mxCell>
        <mxCell id="4f5qZ1VG7d1lo1wWikn_-115" value="8" style="text;html=1;align=center;verticalAlign=middle;whiteSpace=wrap;rounded=0;fontSize=18;fontFamily=Verdana;" vertex="1" parent="1">
          <mxGeometry x="440" y="425" width="40" height="40" as="geometry" />
        </mxCell>
        <mxCell id="4f5qZ1VG7d1lo1wWikn_-116" value="W)" style="text;html=1;align=center;verticalAlign=middle;whiteSpace=wrap;rounded=0;fontSize=18;fontFamily=Verdana;" vertex="1" parent="1">
          <mxGeometry x="440" y="465" width="40" height="40" as="geometry" />
        </mxCell>
        <mxCell id="4f5qZ1VG7d1lo1wWikn_-117" value="9" style="text;html=1;align=center;verticalAlign=middle;whiteSpace=wrap;rounded=0;fontSize=18;fontFamily=Verdana;" vertex="1" parent="1">
          <mxGeometry x="480" y="425" width="40" height="40" as="geometry" />
        </mxCell>
        <mxCell id="4f5qZ1VG7d1lo1wWikn_-118" value="Z)" style="text;html=1;align=center;verticalAlign=middle;whiteSpace=wrap;rounded=0;fontSize=18;fontFamily=Verdana;" vertex="1" parent="1">
          <mxGeometry x="480" y="465" width="40" height="40" as="geometry" />
        </mxCell>
        <mxCell id="4f5qZ1VG7d1lo1wWikn_-119" value="10" style="text;html=1;align=center;verticalAlign=middle;whiteSpace=wrap;rounded=0;fontSize=18;fontFamily=Verdana;" vertex="1" parent="1">
          <mxGeometry x="520" y="425" width="40" height="40" as="geometry" />
        </mxCell>
        <mxCell id="4f5qZ1VG7d1lo1wWikn_-120" value="S)" style="text;html=1;align=center;verticalAlign=middle;whiteSpace=wrap;rounded=0;fontSize=18;fontFamily=Verdana;" vertex="1" parent="1">
          <mxGeometry x="520" y="465" width="40" height="40" as="geometry" />
        </mxCell>
        <mxCell id="4f5qZ1VG7d1lo1wWikn_-121" value="11" style="text;html=1;align=center;verticalAlign=middle;whiteSpace=wrap;rounded=0;fontSize=18;fontFamily=Verdana;" vertex="1" parent="1">
          <mxGeometry x="560" y="425" width="40" height="40" as="geometry" />
        </mxCell>
        <mxCell id="4f5qZ1VG7d1lo1wWikn_-122" value="(T" style="text;html=1;align=center;verticalAlign=middle;whiteSpace=wrap;rounded=0;fontSize=18;fontFamily=Verdana;" vertex="1" parent="1">
          <mxGeometry x="560" y="465" width="40" height="40" as="geometry" />
        </mxCell>
        <mxCell id="4f5qZ1VG7d1lo1wWikn_-123" value="12" style="text;html=1;align=center;verticalAlign=middle;whiteSpace=wrap;rounded=0;fontSize=18;fontFamily=Verdana;" vertex="1" parent="1">
          <mxGeometry x="600" y="425" width="40" height="40" as="geometry" />
        </mxCell>
        <mxCell id="4f5qZ1VG7d1lo1wWikn_-124" value="(V" style="text;html=1;align=center;verticalAlign=middle;whiteSpace=wrap;rounded=0;fontSize=18;fontFamily=Verdana;" vertex="1" parent="1">
          <mxGeometry x="600" y="465" width="40" height="40" as="geometry" />
        </mxCell>
        <mxCell id="4f5qZ1VG7d1lo1wWikn_-125" value="13" style="text;html=1;align=center;verticalAlign=middle;whiteSpace=wrap;rounded=0;fontSize=18;fontFamily=Verdana;" vertex="1" parent="1">
          <mxGeometry x="640" y="425" width="40" height="40" as="geometry" />
        </mxCell>
        <mxCell id="4f5qZ1VG7d1lo1wWikn_-126" value="V)" style="text;html=1;align=center;verticalAlign=middle;whiteSpace=wrap;rounded=0;fontSize=18;fontFamily=Verdana;" vertex="1" parent="1">
          <mxGeometry x="640" y="465" width="40" height="40" as="geometry" />
        </mxCell>
        <mxCell id="4f5qZ1VG7d1lo1wWikn_-127" value="14" style="text;html=1;align=center;verticalAlign=middle;whiteSpace=wrap;rounded=0;fontSize=18;fontFamily=Verdana;" vertex="1" parent="1">
          <mxGeometry x="680" y="425" width="40" height="40" as="geometry" />
        </mxCell>
        <mxCell id="4f5qZ1VG7d1lo1wWikn_-128" value="(U" style="text;html=1;align=center;verticalAlign=middle;whiteSpace=wrap;rounded=0;fontSize=18;fontFamily=Verdana;" vertex="1" parent="1">
          <mxGeometry x="680" y="465" width="40" height="40" as="geometry" />
        </mxCell>
        <mxCell id="4f5qZ1VG7d1lo1wWikn_-129" value="15" style="text;html=1;align=center;verticalAlign=middle;whiteSpace=wrap;rounded=0;fontSize=18;fontFamily=Verdana;" vertex="1" parent="1">
          <mxGeometry x="720" y="425" width="40" height="40" as="geometry" />
        </mxCell>
        <mxCell id="4f5qZ1VG7d1lo1wWikn_-130" value="U)" style="text;html=1;align=center;verticalAlign=middle;whiteSpace=wrap;rounded=0;fontSize=18;fontFamily=Verdana;" vertex="1" parent="1">
          <mxGeometry x="720" y="465" width="40" height="40" as="geometry" />
        </mxCell>
        <mxCell id="4f5qZ1VG7d1lo1wWikn_-131" value="16" style="text;html=1;align=center;verticalAlign=middle;whiteSpace=wrap;rounded=0;fontSize=18;fontFamily=Verdana;" vertex="1" parent="1">
          <mxGeometry x="760" y="425" width="40" height="40" as="geometry" />
        </mxCell>
        <mxCell id="4f5qZ1VG7d1lo1wWikn_-132" value="T)" style="text;html=1;align=center;verticalAlign=middle;whiteSpace=wrap;rounded=0;fontSize=18;fontFamily=Verdana;" vertex="1" parent="1">
          <mxGeometry x="760" y="465" width="40" height="40" as="geometry" />
        </mxCell>
      </root>
    </mxGraphModel>
  </diagram>
  <diagram name="topological_sort" id="QFHCuUkI4X6ew_SK4tse">
    <mxGraphModel dx="1434" dy="836" grid="1" gridSize="10" guides="1" tooltips="1" connect="1" arrows="1" fold="1" page="1" pageScale="1" pageWidth="1100" pageHeight="850" math="0" shadow="0">
      <root>
        <mxCell id="UwHXDycsD0g1XGKoQgpm-0" />
        <mxCell id="UwHXDycsD0g1XGKoQgpm-1" parent="UwHXDycsD0g1XGKoQgpm-0" />
        <mxCell id="UwHXDycsD0g1XGKoQgpm-2" style="edgeStyle=orthogonalEdgeStyle;rounded=0;orthogonalLoop=1;jettySize=auto;html=1;exitX=0.5;exitY=1;exitDx=0;exitDy=0;strokeWidth=3;fillOpacity=0;fontSize=20;fontFamily=Verdana;" edge="1" parent="UwHXDycsD0g1XGKoQgpm-1" source="UwHXDycsD0g1XGKoQgpm-3">
          <mxGeometry relative="1" as="geometry">
            <mxPoint x="190" y="280" as="targetPoint" />
          </mxGeometry>
        </mxCell>
        <mxCell id="UwHXDycsD0g1XGKoQgpm-3" value="" style="ellipse;whiteSpace=wrap;html=1;strokeWidth=3;fillOpacity=0;fontSize=20;fontFamily=Verdana;" vertex="1" parent="UwHXDycsD0g1XGKoQgpm-1">
          <mxGeometry x="140" y="120" width="100" height="80" as="geometry" />
        </mxCell>
        <mxCell id="UwHXDycsD0g1XGKoQgpm-4" value="3" style="text;html=1;align=center;verticalAlign=middle;whiteSpace=wrap;rounded=0;strokeWidth=3;fillOpacity=0;fontSize=20;fontFamily=Verdana;" vertex="1" parent="UwHXDycsD0g1XGKoQgpm-1">
          <mxGeometry x="140" y="140" width="50" height="40" as="geometry" />
        </mxCell>
        <mxCell id="UwHXDycsD0g1XGKoQgpm-5" value="6" style="text;html=1;align=center;verticalAlign=middle;whiteSpace=wrap;rounded=0;strokeWidth=3;fillOpacity=0;fontSize=20;fontFamily=Verdana;" vertex="1" parent="UwHXDycsD0g1XGKoQgpm-1">
          <mxGeometry x="190" y="140" width="50" height="40" as="geometry" />
        </mxCell>
        <mxCell id="UwHXDycsD0g1XGKoQgpm-6" value="" style="endArrow=none;html=1;rounded=0;entryX=0.5;entryY=0;entryDx=0;entryDy=0;exitX=0.5;exitY=1;exitDx=0;exitDy=0;strokeWidth=3;fillOpacity=0;fontSize=20;fontFamily=Verdana;" edge="1" parent="UwHXDycsD0g1XGKoQgpm-1" source="UwHXDycsD0g1XGKoQgpm-3" target="UwHXDycsD0g1XGKoQgpm-3">
          <mxGeometry width="50" height="50" relative="1" as="geometry">
            <mxPoint x="160" y="300" as="sourcePoint" />
            <mxPoint x="210" y="250" as="targetPoint" />
          </mxGeometry>
        </mxCell>
        <mxCell id="UwHXDycsD0g1XGKoQgpm-7" value="Y" style="text;html=1;align=center;verticalAlign=middle;whiteSpace=wrap;rounded=0;strokeWidth=3;fillOpacity=0;fontSize=20;fontFamily=Verdana;" vertex="1" parent="UwHXDycsD0g1XGKoQgpm-1">
          <mxGeometry x="170" y="80" width="40" height="40" as="geometry" />
        </mxCell>
        <mxCell id="UwHXDycsD0g1XGKoQgpm-8" value="" style="ellipse;whiteSpace=wrap;html=1;strokeWidth=3;fillOpacity=0;fontSize=20;fontFamily=Verdana;" vertex="1" parent="UwHXDycsD0g1XGKoQgpm-1">
          <mxGeometry x="140" y="280" width="100" height="80" as="geometry" />
        </mxCell>
        <mxCell id="UwHXDycsD0g1XGKoQgpm-9" value="4" style="text;html=1;align=center;verticalAlign=middle;whiteSpace=wrap;rounded=0;strokeWidth=3;fillOpacity=0;fontSize=20;fontFamily=Verdana;" vertex="1" parent="UwHXDycsD0g1XGKoQgpm-1">
          <mxGeometry x="140" y="300" width="50" height="40" as="geometry" />
        </mxCell>
        <mxCell id="UwHXDycsD0g1XGKoQgpm-10" value="5" style="text;html=1;align=center;verticalAlign=middle;whiteSpace=wrap;rounded=0;strokeWidth=3;fillOpacity=0;fontSize=20;fontFamily=Verdana;" vertex="1" parent="UwHXDycsD0g1XGKoQgpm-1">
          <mxGeometry x="190" y="300" width="50" height="40" as="geometry" />
        </mxCell>
        <mxCell id="UwHXDycsD0g1XGKoQgpm-11" value="" style="endArrow=none;html=1;rounded=0;entryX=0.5;entryY=0;entryDx=0;entryDy=0;exitX=0.5;exitY=1;exitDx=0;exitDy=0;strokeWidth=3;fillOpacity=0;fontSize=20;fontFamily=Verdana;" edge="1" parent="UwHXDycsD0g1XGKoQgpm-1" source="UwHXDycsD0g1XGKoQgpm-8" target="UwHXDycsD0g1XGKoQgpm-8">
          <mxGeometry width="50" height="50" relative="1" as="geometry">
            <mxPoint x="160" y="460" as="sourcePoint" />
            <mxPoint x="210" y="410" as="targetPoint" />
          </mxGeometry>
        </mxCell>
        <mxCell id="UwHXDycsD0g1XGKoQgpm-12" value="X" style="text;html=1;align=center;verticalAlign=middle;whiteSpace=wrap;rounded=0;strokeWidth=3;fillOpacity=0;fontSize=20;fontFamily=Verdana;" vertex="1" parent="UwHXDycsD0g1XGKoQgpm-1">
          <mxGeometry x="170" y="360" width="40" height="40" as="geometry" />
        </mxCell>
        <mxCell id="UwHXDycsD0g1XGKoQgpm-13" style="edgeStyle=orthogonalEdgeStyle;rounded=0;orthogonalLoop=1;jettySize=auto;html=1;exitX=0;exitY=0.5;exitDx=0;exitDy=0;entryX=1;entryY=0.5;entryDx=0;entryDy=0;strokeWidth=3;fillOpacity=0;fontSize=20;fontFamily=Verdana;" edge="1" parent="UwHXDycsD0g1XGKoQgpm-1" source="UwHXDycsD0g1XGKoQgpm-15" target="UwHXDycsD0g1XGKoQgpm-3">
          <mxGeometry relative="1" as="geometry" />
        </mxCell>
        <mxCell id="UwHXDycsD0g1XGKoQgpm-14" style="edgeStyle=orthogonalEdgeStyle;rounded=0;orthogonalLoop=1;jettySize=auto;html=1;exitX=0.5;exitY=1;exitDx=0;exitDy=0;strokeWidth=3;fillOpacity=0;fontSize=20;fontFamily=Verdana;" edge="1" parent="UwHXDycsD0g1XGKoQgpm-1" source="UwHXDycsD0g1XGKoQgpm-15">
          <mxGeometry relative="1" as="geometry">
            <mxPoint x="400" y="280" as="targetPoint" />
          </mxGeometry>
        </mxCell>
        <mxCell id="UwHXDycsD0g1XGKoQgpm-15" value="" style="ellipse;whiteSpace=wrap;html=1;strokeWidth=3;fillOpacity=0;fontSize=20;fontFamily=Verdana;" vertex="1" parent="UwHXDycsD0g1XGKoQgpm-1">
          <mxGeometry x="350" y="120" width="100" height="80" as="geometry" />
        </mxCell>
        <mxCell id="UwHXDycsD0g1XGKoQgpm-16" value="2" style="text;html=1;align=center;verticalAlign=middle;whiteSpace=wrap;rounded=0;strokeWidth=3;fillOpacity=0;fontSize=20;fontFamily=Verdana;" vertex="1" parent="UwHXDycsD0g1XGKoQgpm-1">
          <mxGeometry x="350" y="140" width="50" height="40" as="geometry" />
        </mxCell>
        <mxCell id="UwHXDycsD0g1XGKoQgpm-17" value="9" style="text;html=1;align=center;verticalAlign=middle;whiteSpace=wrap;rounded=0;strokeWidth=3;fillOpacity=0;fontSize=20;fontFamily=Verdana;" vertex="1" parent="UwHXDycsD0g1XGKoQgpm-1">
          <mxGeometry x="400" y="140" width="50" height="40" as="geometry" />
        </mxCell>
        <mxCell id="UwHXDycsD0g1XGKoQgpm-18" value="" style="endArrow=none;html=1;rounded=0;entryX=0.5;entryY=0;entryDx=0;entryDy=0;exitX=0.5;exitY=1;exitDx=0;exitDy=0;strokeWidth=3;fillOpacity=0;fontSize=20;fontFamily=Verdana;" edge="1" parent="UwHXDycsD0g1XGKoQgpm-1" source="UwHXDycsD0g1XGKoQgpm-15" target="UwHXDycsD0g1XGKoQgpm-15">
          <mxGeometry width="50" height="50" relative="1" as="geometry">
            <mxPoint x="370" y="300" as="sourcePoint" />
            <mxPoint x="420" y="250" as="targetPoint" />
          </mxGeometry>
        </mxCell>
        <mxCell id="UwHXDycsD0g1XGKoQgpm-19" value="Z" style="text;html=1;align=center;verticalAlign=middle;whiteSpace=wrap;rounded=0;strokeWidth=3;fillOpacity=0;fontSize=20;fontFamily=Verdana;" vertex="1" parent="UwHXDycsD0g1XGKoQgpm-1">
          <mxGeometry x="380" y="80" width="40" height="40" as="geometry" />
        </mxCell>
        <mxCell id="UwHXDycsD0g1XGKoQgpm-20" style="edgeStyle=orthogonalEdgeStyle;rounded=0;orthogonalLoop=1;jettySize=auto;html=1;exitX=0;exitY=0.5;exitDx=0;exitDy=0;entryX=1;entryY=0.5;entryDx=0;entryDy=0;strokeWidth=3;fillOpacity=0;fontSize=20;fontFamily=Verdana;" edge="1" parent="UwHXDycsD0g1XGKoQgpm-1" source="UwHXDycsD0g1XGKoQgpm-21" target="UwHXDycsD0g1XGKoQgpm-8">
          <mxGeometry relative="1" as="geometry" />
        </mxCell>
        <mxCell id="UwHXDycsD0g1XGKoQgpm-21" value="" style="ellipse;whiteSpace=wrap;html=1;strokeWidth=3;fillOpacity=0;fontSize=20;fontFamily=Verdana;" vertex="1" parent="UwHXDycsD0g1XGKoQgpm-1">
          <mxGeometry x="350" y="280" width="100" height="80" as="geometry" />
        </mxCell>
        <mxCell id="UwHXDycsD0g1XGKoQgpm-22" value="7" style="text;html=1;align=center;verticalAlign=middle;whiteSpace=wrap;rounded=0;strokeWidth=3;fillOpacity=0;fontSize=20;fontFamily=Verdana;" vertex="1" parent="UwHXDycsD0g1XGKoQgpm-1">
          <mxGeometry x="350" y="300" width="50" height="40" as="geometry" />
        </mxCell>
        <mxCell id="UwHXDycsD0g1XGKoQgpm-23" value="8" style="text;html=1;align=center;verticalAlign=middle;whiteSpace=wrap;rounded=0;strokeWidth=3;fillOpacity=0;fontSize=20;fontFamily=Verdana;" vertex="1" parent="UwHXDycsD0g1XGKoQgpm-1">
          <mxGeometry x="400" y="300" width="50" height="40" as="geometry" />
        </mxCell>
        <mxCell id="UwHXDycsD0g1XGKoQgpm-24" value="" style="endArrow=none;html=1;rounded=0;entryX=0.5;entryY=0;entryDx=0;entryDy=0;exitX=0.5;exitY=1;exitDx=0;exitDy=0;strokeWidth=3;fillOpacity=0;fontSize=20;fontFamily=Verdana;" edge="1" parent="UwHXDycsD0g1XGKoQgpm-1" source="UwHXDycsD0g1XGKoQgpm-21" target="UwHXDycsD0g1XGKoQgpm-21">
          <mxGeometry width="50" height="50" relative="1" as="geometry">
            <mxPoint x="370" y="460" as="sourcePoint" />
            <mxPoint x="420" y="410" as="targetPoint" />
          </mxGeometry>
        </mxCell>
        <mxCell id="UwHXDycsD0g1XGKoQgpm-25" value="W" style="text;html=1;align=center;verticalAlign=middle;whiteSpace=wrap;rounded=0;strokeWidth=3;fillOpacity=0;fontSize=20;fontFamily=Verdana;" vertex="1" parent="UwHXDycsD0g1XGKoQgpm-1">
          <mxGeometry x="380" y="360" width="40" height="40" as="geometry" />
        </mxCell>
        <mxCell id="UwHXDycsD0g1XGKoQgpm-26" style="rounded=0;orthogonalLoop=1;jettySize=auto;html=1;exitX=0;exitY=1;exitDx=0;exitDy=0;entryX=1;entryY=0;entryDx=0;entryDy=0;strokeWidth=3;fillOpacity=0;fontSize=20;fontFamily=Verdana;" edge="1" parent="UwHXDycsD0g1XGKoQgpm-1" source="UwHXDycsD0g1XGKoQgpm-28" target="UwHXDycsD0g1XGKoQgpm-21">
          <mxGeometry relative="1" as="geometry" />
        </mxCell>
        <mxCell id="UwHXDycsD0g1XGKoQgpm-27" style="edgeStyle=orthogonalEdgeStyle;rounded=0;orthogonalLoop=1;jettySize=auto;html=1;exitX=0;exitY=0.5;exitDx=0;exitDy=0;entryX=1;entryY=0.5;entryDx=0;entryDy=0;strokeWidth=3;fillOpacity=0;fontSize=20;fontFamily=Verdana;" edge="1" parent="UwHXDycsD0g1XGKoQgpm-1" source="UwHXDycsD0g1XGKoQgpm-28" target="UwHXDycsD0g1XGKoQgpm-15">
          <mxGeometry relative="1" as="geometry" />
        </mxCell>
        <mxCell id="UwHXDycsD0g1XGKoQgpm-28" value="" style="ellipse;whiteSpace=wrap;html=1;strokeWidth=3;fillOpacity=0;fontSize=20;fontFamily=Verdana;" vertex="1" parent="UwHXDycsD0g1XGKoQgpm-1">
          <mxGeometry x="550" y="120" width="100" height="80" as="geometry" />
        </mxCell>
        <mxCell id="UwHXDycsD0g1XGKoQgpm-29" value="1" style="text;html=1;align=center;verticalAlign=middle;whiteSpace=wrap;rounded=0;strokeWidth=3;fillOpacity=0;fontSize=20;fontFamily=Verdana;" vertex="1" parent="UwHXDycsD0g1XGKoQgpm-1">
          <mxGeometry x="550" y="140" width="50" height="40" as="geometry" />
        </mxCell>
        <mxCell id="UwHXDycsD0g1XGKoQgpm-30" value="10" style="text;html=1;align=center;verticalAlign=middle;whiteSpace=wrap;rounded=0;strokeWidth=3;fillOpacity=0;fontSize=20;fontFamily=Verdana;" vertex="1" parent="UwHXDycsD0g1XGKoQgpm-1">
          <mxGeometry x="600" y="140" width="50" height="40" as="geometry" />
        </mxCell>
        <mxCell id="UwHXDycsD0g1XGKoQgpm-31" value="" style="endArrow=none;html=1;rounded=0;entryX=0.5;entryY=0;entryDx=0;entryDy=0;exitX=0.5;exitY=1;exitDx=0;exitDy=0;strokeWidth=3;fillOpacity=0;fontSize=20;fontFamily=Verdana;" edge="1" parent="UwHXDycsD0g1XGKoQgpm-1" source="UwHXDycsD0g1XGKoQgpm-28" target="UwHXDycsD0g1XGKoQgpm-28">
          <mxGeometry width="50" height="50" relative="1" as="geometry">
            <mxPoint x="570" y="300" as="sourcePoint" />
            <mxPoint x="620" y="250" as="targetPoint" />
          </mxGeometry>
        </mxCell>
        <mxCell id="UwHXDycsD0g1XGKoQgpm-32" value="S" style="text;html=1;align=center;verticalAlign=middle;whiteSpace=wrap;rounded=0;strokeWidth=3;fillOpacity=0;fontSize=20;fontFamily=Verdana;" vertex="1" parent="UwHXDycsD0g1XGKoQgpm-1">
          <mxGeometry x="580" y="80" width="40" height="40" as="geometry" />
        </mxCell>
        <mxCell id="UwHXDycsD0g1XGKoQgpm-33" style="edgeStyle=orthogonalEdgeStyle;rounded=0;orthogonalLoop=1;jettySize=auto;html=1;exitX=0;exitY=0.5;exitDx=0;exitDy=0;entryX=1;entryY=0.5;entryDx=0;entryDy=0;strokeWidth=3;fillOpacity=0;fontSize=20;fontFamily=Verdana;" edge="1" parent="UwHXDycsD0g1XGKoQgpm-1" source="UwHXDycsD0g1XGKoQgpm-35" target="UwHXDycsD0g1XGKoQgpm-21">
          <mxGeometry relative="1" as="geometry" />
        </mxCell>
        <mxCell id="UwHXDycsD0g1XGKoQgpm-34" style="edgeStyle=orthogonalEdgeStyle;rounded=0;orthogonalLoop=1;jettySize=auto;html=1;exitX=0.5;exitY=0;exitDx=0;exitDy=0;strokeWidth=3;fillOpacity=0;fontSize=20;fontFamily=Verdana;" edge="1" parent="UwHXDycsD0g1XGKoQgpm-1" source="UwHXDycsD0g1XGKoQgpm-35">
          <mxGeometry relative="1" as="geometry">
            <mxPoint x="600" y="200" as="targetPoint" />
          </mxGeometry>
        </mxCell>
        <mxCell id="UwHXDycsD0g1XGKoQgpm-35" value="" style="ellipse;whiteSpace=wrap;html=1;strokeWidth=3;fillOpacity=0;fontSize=20;fontFamily=Verdana;" vertex="1" parent="UwHXDycsD0g1XGKoQgpm-1">
          <mxGeometry x="550" y="280" width="100" height="80" as="geometry" />
        </mxCell>
        <mxCell id="UwHXDycsD0g1XGKoQgpm-36" value="12" style="text;html=1;align=center;verticalAlign=middle;whiteSpace=wrap;rounded=0;strokeWidth=3;fillOpacity=0;fontSize=20;fontFamily=Verdana;" vertex="1" parent="UwHXDycsD0g1XGKoQgpm-1">
          <mxGeometry x="550" y="300" width="50" height="40" as="geometry" />
        </mxCell>
        <mxCell id="UwHXDycsD0g1XGKoQgpm-37" value="13" style="text;html=1;align=center;verticalAlign=middle;whiteSpace=wrap;rounded=0;strokeWidth=3;fillOpacity=0;fontSize=20;fontFamily=Verdana;" vertex="1" parent="UwHXDycsD0g1XGKoQgpm-1">
          <mxGeometry x="600" y="300" width="50" height="40" as="geometry" />
        </mxCell>
        <mxCell id="UwHXDycsD0g1XGKoQgpm-38" value="" style="endArrow=none;html=1;rounded=0;entryX=0.5;entryY=0;entryDx=0;entryDy=0;exitX=0.5;exitY=1;exitDx=0;exitDy=0;strokeWidth=3;fillOpacity=0;fontSize=20;fontFamily=Verdana;" edge="1" parent="UwHXDycsD0g1XGKoQgpm-1" source="UwHXDycsD0g1XGKoQgpm-35" target="UwHXDycsD0g1XGKoQgpm-35">
          <mxGeometry width="50" height="50" relative="1" as="geometry">
            <mxPoint x="570" y="460" as="sourcePoint" />
            <mxPoint x="620" y="410" as="targetPoint" />
          </mxGeometry>
        </mxCell>
        <mxCell id="UwHXDycsD0g1XGKoQgpm-39" value="V" style="text;html=1;align=center;verticalAlign=middle;whiteSpace=wrap;rounded=0;strokeWidth=3;fillOpacity=0;fontSize=20;fontFamily=Verdana;" vertex="1" parent="UwHXDycsD0g1XGKoQgpm-1">
          <mxGeometry x="580" y="360" width="40" height="40" as="geometry" />
        </mxCell>
        <mxCell id="UwHXDycsD0g1XGKoQgpm-40" style="rounded=0;orthogonalLoop=1;jettySize=auto;html=1;exitX=0;exitY=1;exitDx=0;exitDy=0;entryX=1;entryY=0;entryDx=0;entryDy=0;strokeWidth=3;fillOpacity=0;fontSize=20;fontFamily=Verdana;" edge="1" parent="UwHXDycsD0g1XGKoQgpm-1" source="UwHXDycsD0g1XGKoQgpm-41" target="UwHXDycsD0g1XGKoQgpm-35">
          <mxGeometry relative="1" as="geometry" />
        </mxCell>
        <mxCell id="UwHXDycsD0g1XGKoQgpm-41" value="" style="ellipse;whiteSpace=wrap;html=1;strokeWidth=3;fillOpacity=0;fontSize=20;fontFamily=Verdana;" vertex="1" parent="UwHXDycsD0g1XGKoQgpm-1">
          <mxGeometry x="730" y="120" width="100" height="80" as="geometry" />
        </mxCell>
        <mxCell id="UwHXDycsD0g1XGKoQgpm-42" value="11" style="text;html=1;align=center;verticalAlign=middle;whiteSpace=wrap;rounded=0;strokeWidth=3;fillOpacity=0;fontSize=20;fontFamily=Verdana;" vertex="1" parent="UwHXDycsD0g1XGKoQgpm-1">
          <mxGeometry x="730" y="140" width="50" height="40" as="geometry" />
        </mxCell>
        <mxCell id="UwHXDycsD0g1XGKoQgpm-43" value="16" style="text;html=1;align=center;verticalAlign=middle;whiteSpace=wrap;rounded=0;strokeWidth=3;fillOpacity=0;fontSize=20;fontFamily=Verdana;" vertex="1" parent="UwHXDycsD0g1XGKoQgpm-1">
          <mxGeometry x="780" y="140" width="50" height="40" as="geometry" />
        </mxCell>
        <mxCell id="UwHXDycsD0g1XGKoQgpm-44" value="" style="endArrow=none;html=1;rounded=0;entryX=0.5;entryY=0;entryDx=0;entryDy=0;exitX=0.5;exitY=1;exitDx=0;exitDy=0;strokeWidth=3;fillOpacity=0;fontSize=20;fontFamily=Verdana;" edge="1" parent="UwHXDycsD0g1XGKoQgpm-1" source="UwHXDycsD0g1XGKoQgpm-41" target="UwHXDycsD0g1XGKoQgpm-41">
          <mxGeometry width="50" height="50" relative="1" as="geometry">
            <mxPoint x="750" y="300" as="sourcePoint" />
            <mxPoint x="800" y="250" as="targetPoint" />
          </mxGeometry>
        </mxCell>
        <mxCell id="UwHXDycsD0g1XGKoQgpm-45" value="T" style="text;html=1;align=center;verticalAlign=middle;whiteSpace=wrap;rounded=0;strokeWidth=3;fillOpacity=0;fontSize=20;fontFamily=Verdana;" vertex="1" parent="UwHXDycsD0g1XGKoQgpm-1">
          <mxGeometry x="760" y="80" width="40" height="40" as="geometry" />
        </mxCell>
        <mxCell id="UwHXDycsD0g1XGKoQgpm-46" style="edgeStyle=orthogonalEdgeStyle;rounded=0;orthogonalLoop=1;jettySize=auto;html=1;exitX=0;exitY=0.5;exitDx=0;exitDy=0;entryX=1;entryY=0.5;entryDx=0;entryDy=0;strokeWidth=3;fillOpacity=0;fontSize=20;fontFamily=Verdana;" edge="1" parent="UwHXDycsD0g1XGKoQgpm-1" source="UwHXDycsD0g1XGKoQgpm-48" target="UwHXDycsD0g1XGKoQgpm-35">
          <mxGeometry relative="1" as="geometry" />
        </mxCell>
        <mxCell id="UwHXDycsD0g1XGKoQgpm-47" style="rounded=0;orthogonalLoop=1;jettySize=auto;html=1;entryX=0.558;entryY=1;entryDx=0;entryDy=0;entryPerimeter=0;exitX=0.558;exitY=-0.05;exitDx=0;exitDy=0;exitPerimeter=0;strokeWidth=3;fillOpacity=0;fontSize=20;fontFamily=Verdana;" edge="1" parent="UwHXDycsD0g1XGKoQgpm-1" source="UwHXDycsD0g1XGKoQgpm-48" target="UwHXDycsD0g1XGKoQgpm-41">
          <mxGeometry relative="1" as="geometry">
            <mxPoint x="780" y="200" as="targetPoint" />
            <mxPoint x="787" y="270" as="sourcePoint" />
          </mxGeometry>
        </mxCell>
        <mxCell id="UwHXDycsD0g1XGKoQgpm-48" value="" style="ellipse;whiteSpace=wrap;html=1;strokeWidth=3;fillOpacity=0;fontSize=20;fontFamily=Verdana;" vertex="1" parent="UwHXDycsD0g1XGKoQgpm-1">
          <mxGeometry x="730" y="280" width="100" height="80" as="geometry" />
        </mxCell>
        <mxCell id="UwHXDycsD0g1XGKoQgpm-49" value="14" style="text;html=1;align=center;verticalAlign=middle;whiteSpace=wrap;rounded=0;strokeWidth=3;fillOpacity=0;fontSize=20;fontFamily=Verdana;" vertex="1" parent="UwHXDycsD0g1XGKoQgpm-1">
          <mxGeometry x="730" y="300" width="50" height="40" as="geometry" />
        </mxCell>
        <mxCell id="UwHXDycsD0g1XGKoQgpm-50" value="15" style="text;html=1;align=center;verticalAlign=middle;whiteSpace=wrap;rounded=0;strokeWidth=3;fillOpacity=0;fontSize=20;fontFamily=Verdana;" vertex="1" parent="UwHXDycsD0g1XGKoQgpm-1">
          <mxGeometry x="780" y="300" width="50" height="40" as="geometry" />
        </mxCell>
        <mxCell id="UwHXDycsD0g1XGKoQgpm-51" value="" style="endArrow=none;html=1;rounded=0;entryX=0.5;entryY=0;entryDx=0;entryDy=0;exitX=0.5;exitY=1;exitDx=0;exitDy=0;strokeWidth=3;fillOpacity=0;fontSize=20;fontFamily=Verdana;" edge="1" parent="UwHXDycsD0g1XGKoQgpm-1" source="UwHXDycsD0g1XGKoQgpm-48" target="UwHXDycsD0g1XGKoQgpm-48">
          <mxGeometry width="50" height="50" relative="1" as="geometry">
            <mxPoint x="750" y="460" as="sourcePoint" />
            <mxPoint x="800" y="410" as="targetPoint" />
          </mxGeometry>
        </mxCell>
        <mxCell id="UwHXDycsD0g1XGKoQgpm-52" value="U" style="text;html=1;align=center;verticalAlign=middle;whiteSpace=wrap;rounded=0;strokeWidth=3;fillOpacity=0;fontSize=20;fontFamily=Verdana;" vertex="1" parent="UwHXDycsD0g1XGKoQgpm-1">
          <mxGeometry x="760" y="360" width="40" height="40" as="geometry" />
        </mxCell>
        <mxCell id="UwHXDycsD0g1XGKoQgpm-53" style="rounded=0;orthogonalLoop=1;jettySize=auto;html=1;exitX=1;exitY=0;exitDx=0;exitDy=0;entryX=0;entryY=1;entryDx=0;entryDy=0;strokeWidth=3;fillOpacity=0;fontSize=20;fontFamily=Verdana;" edge="1" parent="UwHXDycsD0g1XGKoQgpm-1" source="UwHXDycsD0g1XGKoQgpm-8" target="UwHXDycsD0g1XGKoQgpm-15">
          <mxGeometry relative="1" as="geometry" />
        </mxCell>
        <mxCell id="UwHXDycsD0g1XGKoQgpm-54" style="rounded=0;orthogonalLoop=1;jettySize=auto;html=1;strokeWidth=3;fillOpacity=0;fontSize=20;fontFamily=Verdana;" edge="1" parent="UwHXDycsD0g1XGKoQgpm-1">
          <mxGeometry relative="1" as="geometry">
            <mxPoint x="770" y="199" as="sourcePoint" />
            <mxPoint x="770" y="280" as="targetPoint" />
          </mxGeometry>
        </mxCell>
        <mxCell id="UwHXDycsD0g1XGKoQgpm-63" value="5" style="text;html=1;align=center;verticalAlign=middle;whiteSpace=wrap;rounded=0;fontSize=18;fontFamily=Verdana;" vertex="1" parent="UwHXDycsD0g1XGKoQgpm-1">
          <mxGeometry x="700" y="430" width="40" height="40" as="geometry" />
        </mxCell>
        <mxCell id="UwHXDycsD0g1XGKoQgpm-64" value="X" style="text;html=1;align=center;verticalAlign=middle;whiteSpace=wrap;rounded=0;fontSize=18;fontFamily=Verdana;" vertex="1" parent="UwHXDycsD0g1XGKoQgpm-1">
          <mxGeometry x="700" y="470" width="40" height="40" as="geometry" />
        </mxCell>
        <mxCell id="UwHXDycsD0g1XGKoQgpm-65" value="6" style="text;html=1;align=center;verticalAlign=middle;whiteSpace=wrap;rounded=0;fontSize=18;fontFamily=Verdana;" vertex="1" parent="UwHXDycsD0g1XGKoQgpm-1">
          <mxGeometry x="660" y="430" width="40" height="40" as="geometry" />
        </mxCell>
        <mxCell id="UwHXDycsD0g1XGKoQgpm-66" value="Y" style="text;html=1;align=center;verticalAlign=middle;whiteSpace=wrap;rounded=0;fontSize=18;fontFamily=Verdana;" vertex="1" parent="UwHXDycsD0g1XGKoQgpm-1">
          <mxGeometry x="660" y="470" width="40" height="40" as="geometry" />
        </mxCell>
        <mxCell id="UwHXDycsD0g1XGKoQgpm-69" value="8" style="text;html=1;align=center;verticalAlign=middle;whiteSpace=wrap;rounded=0;fontSize=18;fontFamily=Verdana;" vertex="1" parent="UwHXDycsD0g1XGKoQgpm-1">
          <mxGeometry x="620" y="430" width="40" height="40" as="geometry" />
        </mxCell>
        <mxCell id="UwHXDycsD0g1XGKoQgpm-70" value="W" style="text;html=1;align=center;verticalAlign=middle;whiteSpace=wrap;rounded=0;fontSize=18;fontFamily=Verdana;" vertex="1" parent="UwHXDycsD0g1XGKoQgpm-1">
          <mxGeometry x="620" y="470" width="40" height="40" as="geometry" />
        </mxCell>
        <mxCell id="UwHXDycsD0g1XGKoQgpm-71" value="9" style="text;html=1;align=center;verticalAlign=middle;whiteSpace=wrap;rounded=0;fontSize=18;fontFamily=Verdana;" vertex="1" parent="UwHXDycsD0g1XGKoQgpm-1">
          <mxGeometry x="580" y="430" width="40" height="40" as="geometry" />
        </mxCell>
        <mxCell id="UwHXDycsD0g1XGKoQgpm-72" value="Z" style="text;html=1;align=center;verticalAlign=middle;whiteSpace=wrap;rounded=0;fontSize=18;fontFamily=Verdana;" vertex="1" parent="UwHXDycsD0g1XGKoQgpm-1">
          <mxGeometry x="580" y="470" width="40" height="40" as="geometry" />
        </mxCell>
        <mxCell id="UwHXDycsD0g1XGKoQgpm-73" value="10" style="text;html=1;align=center;verticalAlign=middle;whiteSpace=wrap;rounded=0;fontSize=18;fontFamily=Verdana;" vertex="1" parent="UwHXDycsD0g1XGKoQgpm-1">
          <mxGeometry x="540" y="430" width="40" height="40" as="geometry" />
        </mxCell>
        <mxCell id="UwHXDycsD0g1XGKoQgpm-74" value="S" style="text;html=1;align=center;verticalAlign=middle;whiteSpace=wrap;rounded=0;fontSize=18;fontFamily=Verdana;" vertex="1" parent="UwHXDycsD0g1XGKoQgpm-1">
          <mxGeometry x="540" y="470" width="40" height="40" as="geometry" />
        </mxCell>
        <mxCell id="UwHXDycsD0g1XGKoQgpm-85" value="16" style="text;html=1;align=center;verticalAlign=middle;whiteSpace=wrap;rounded=0;fontSize=18;fontFamily=Verdana;" vertex="1" parent="UwHXDycsD0g1XGKoQgpm-1">
          <mxGeometry x="420" y="430" width="40" height="40" as="geometry" />
        </mxCell>
        <mxCell id="UwHXDycsD0g1XGKoQgpm-86" value="T" style="text;html=1;align=center;verticalAlign=middle;whiteSpace=wrap;rounded=0;fontSize=18;fontFamily=Verdana;" vertex="1" parent="UwHXDycsD0g1XGKoQgpm-1">
          <mxGeometry x="420" y="470" width="40" height="40" as="geometry" />
        </mxCell>
        <mxCell id="BmieVdHrnRht-u89tx7A-0" value="15" style="text;html=1;align=center;verticalAlign=middle;whiteSpace=wrap;rounded=0;fontSize=18;fontFamily=Verdana;" vertex="1" parent="UwHXDycsD0g1XGKoQgpm-1">
          <mxGeometry x="460" y="430" width="40" height="40" as="geometry" />
        </mxCell>
        <mxCell id="BmieVdHrnRht-u89tx7A-1" value="U" style="text;html=1;align=center;verticalAlign=middle;whiteSpace=wrap;rounded=0;fontSize=18;fontFamily=Verdana;" vertex="1" parent="UwHXDycsD0g1XGKoQgpm-1">
          <mxGeometry x="460" y="470" width="40" height="40" as="geometry" />
        </mxCell>
        <mxCell id="BmieVdHrnRht-u89tx7A-2" value="13" style="text;html=1;align=center;verticalAlign=middle;whiteSpace=wrap;rounded=0;fontSize=18;fontFamily=Verdana;" vertex="1" parent="UwHXDycsD0g1XGKoQgpm-1">
          <mxGeometry x="500" y="430" width="40" height="40" as="geometry" />
        </mxCell>
        <mxCell id="BmieVdHrnRht-u89tx7A-3" value="V" style="text;html=1;align=center;verticalAlign=middle;whiteSpace=wrap;rounded=0;fontSize=18;fontFamily=Verdana;" vertex="1" parent="UwHXDycsD0g1XGKoQgpm-1">
          <mxGeometry x="500" y="470" width="40" height="40" as="geometry" />
        </mxCell>
        <mxCell id="BmieVdHrnRht-u89tx7A-4" value="Topological&amp;nbsp;&lt;span style=&quot;background-color: initial;&quot;&gt;sort:&lt;/span&gt;" style="text;html=1;align=center;verticalAlign=middle;whiteSpace=wrap;rounded=0;fontSize=20;fontFamily=Verdana;" vertex="1" parent="UwHXDycsD0g1XGKoQgpm-1">
          <mxGeometry x="220" y="425" width="190" height="80" as="geometry" />
        </mxCell>
      </root>
    </mxGraphModel>
  </diagram>
  <diagram id="zoVPNIvIXNjKfo7deo02" name="resource_allocation_graph">
    <mxGraphModel dx="1434" dy="836" grid="1" gridSize="10" guides="1" tooltips="1" connect="1" arrows="1" fold="1" page="1" pageScale="1" pageWidth="1100" pageHeight="850" math="0" shadow="0">
      <root>
        <mxCell id="0" />
        <mxCell id="1" parent="0" />
        <mxCell id="3-ab1XvGPLoUSmkG0dyb-1" value="R1" style="rounded=0;whiteSpace=wrap;html=1;fillOpacity=0;strokeWidth=3;fontFamily=Verdana;fontSize=20;" vertex="1" parent="1">
          <mxGeometry x="237.5" y="140" width="100" height="80" as="geometry" />
        </mxCell>
        <mxCell id="3-ab1XvGPLoUSmkG0dyb-3" value="R3" style="rounded=0;whiteSpace=wrap;html=1;fillOpacity=0;strokeWidth=3;fontFamily=Verdana;fontSize=20;" vertex="1" parent="1">
          <mxGeometry x="460" y="120" width="100" height="80" as="geometry" />
        </mxCell>
        <mxCell id="3-ab1XvGPLoUSmkG0dyb-4" value="R2" style="rounded=0;whiteSpace=wrap;html=1;fillOpacity=0;strokeWidth=3;fontFamily=Verdana;fontSize=20;" vertex="1" parent="1">
          <mxGeometry x="215" y="390" width="145" height="110" as="geometry" />
        </mxCell>
        <mxCell id="3-ab1XvGPLoUSmkG0dyb-5" value="R4" style="rounded=0;whiteSpace=wrap;html=1;fillOpacity=0;strokeWidth=3;fontFamily=Verdana;fontSize=20;" vertex="1" parent="1">
          <mxGeometry x="470" y="385" width="180" height="120" as="geometry" />
        </mxCell>
        <mxCell id="3-ab1XvGPLoUSmkG0dyb-13" style="rounded=0;orthogonalLoop=1;jettySize=auto;html=1;exitX=0.5;exitY=0;exitDx=0;exitDy=0;entryX=0.25;entryY=1;entryDx=0;entryDy=0;fillOpacity=0;strokeWidth=3;fontFamily=Verdana;fontSize=20;" edge="1" parent="1" source="3-ab1XvGPLoUSmkG0dyb-6" target="3-ab1XvGPLoUSmkG0dyb-1">
          <mxGeometry relative="1" as="geometry" />
        </mxCell>
        <mxCell id="3-ab1XvGPLoUSmkG0dyb-6" value="P1" style="ellipse;whiteSpace=wrap;html=1;aspect=fixed;fillOpacity=0;strokeWidth=3;fontFamily=Verdana;fontSize=20;" vertex="1" parent="1">
          <mxGeometry x="230" y="290" width="50" height="50" as="geometry" />
        </mxCell>
        <mxCell id="3-ab1XvGPLoUSmkG0dyb-15" style="rounded=0;orthogonalLoop=1;jettySize=auto;html=1;exitX=1;exitY=0;exitDx=0;exitDy=0;entryX=0.25;entryY=1;entryDx=0;entryDy=0;fillOpacity=0;strokeWidth=3;fontFamily=Verdana;fontSize=20;" edge="1" parent="1" source="3-ab1XvGPLoUSmkG0dyb-7" target="3-ab1XvGPLoUSmkG0dyb-3">
          <mxGeometry relative="1" as="geometry" />
        </mxCell>
        <mxCell id="3-ab1XvGPLoUSmkG0dyb-7" value="P2" style="ellipse;whiteSpace=wrap;html=1;aspect=fixed;fillOpacity=0;strokeWidth=3;fontFamily=Verdana;fontSize=20;" vertex="1" parent="1">
          <mxGeometry x="380" y="280" width="50" height="50" as="geometry" />
        </mxCell>
        <mxCell id="3-ab1XvGPLoUSmkG0dyb-8" value="P3" style="ellipse;whiteSpace=wrap;html=1;aspect=fixed;fillOpacity=0;strokeWidth=3;fontFamily=Verdana;fontSize=20;" vertex="1" parent="1">
          <mxGeometry x="500" y="280" width="50" height="50" as="geometry" />
        </mxCell>
        <mxCell id="3-ab1XvGPLoUSmkG0dyb-10" value="P4" style="ellipse;whiteSpace=wrap;html=1;aspect=fixed;fillOpacity=0;strokeWidth=3;fontFamily=Verdana;fontSize=20;" vertex="1" parent="1">
          <mxGeometry x="630" y="290" width="50" height="50" as="geometry" />
        </mxCell>
        <mxCell id="3-ab1XvGPLoUSmkG0dyb-11" style="rounded=0;orthogonalLoop=1;jettySize=auto;html=1;entryX=-0.02;entryY=0.8;entryDx=0;entryDy=0;entryPerimeter=0;fillOpacity=0;strokeWidth=3;fontFamily=Verdana;fontSize=20;exitX=0.439;exitY=0;exitDx=0;exitDy=0;exitPerimeter=0;" edge="1" parent="1" source="3-ab1XvGPLoUSmkG0dyb-5" target="3-ab1XvGPLoUSmkG0dyb-10">
          <mxGeometry relative="1" as="geometry">
            <mxPoint x="560" y="380" as="sourcePoint" />
          </mxGeometry>
        </mxCell>
        <mxCell id="3-ab1XvGPLoUSmkG0dyb-12" style="rounded=0;orthogonalLoop=1;jettySize=auto;html=1;exitX=0.25;exitY=0;exitDx=0;exitDy=0;entryX=0.36;entryY=1.08;entryDx=0;entryDy=0;entryPerimeter=0;fillOpacity=0;strokeWidth=3;fontFamily=Verdana;fontSize=20;" edge="1" parent="1" source="3-ab1XvGPLoUSmkG0dyb-4" target="3-ab1XvGPLoUSmkG0dyb-6">
          <mxGeometry relative="1" as="geometry" />
        </mxCell>
        <mxCell id="3-ab1XvGPLoUSmkG0dyb-14" style="rounded=0;orthogonalLoop=1;jettySize=auto;html=1;entryX=0.2;entryY=1;entryDx=0;entryDy=0;entryPerimeter=0;fillOpacity=0;strokeWidth=3;fontFamily=Verdana;fontSize=20;exitX=0.69;exitY=-0.033;exitDx=0;exitDy=0;exitPerimeter=0;" edge="1" parent="1" source="3-ab1XvGPLoUSmkG0dyb-4" target="3-ab1XvGPLoUSmkG0dyb-7">
          <mxGeometry relative="1" as="geometry">
            <mxPoint x="280" y="366" as="sourcePoint" />
          </mxGeometry>
        </mxCell>
        <mxCell id="3-ab1XvGPLoUSmkG0dyb-16" style="rounded=0;orthogonalLoop=1;jettySize=auto;html=1;exitX=0.75;exitY=1;exitDx=0;exitDy=0;entryX=0.2;entryY=0;entryDx=0;entryDy=0;entryPerimeter=0;fillOpacity=0;strokeWidth=3;fontFamily=Verdana;fontSize=20;" edge="1" parent="1" source="3-ab1XvGPLoUSmkG0dyb-1" target="3-ab1XvGPLoUSmkG0dyb-7">
          <mxGeometry relative="1" as="geometry" />
        </mxCell>
        <mxCell id="3-ab1XvGPLoUSmkG0dyb-17" style="rounded=0;orthogonalLoop=1;jettySize=auto;html=1;exitX=0.75;exitY=1;exitDx=0;exitDy=0;entryX=0.7;entryY=-0.08;entryDx=0;entryDy=0;entryPerimeter=0;fillOpacity=0;strokeWidth=3;fontFamily=Verdana;fontSize=20;" edge="1" parent="1" source="3-ab1XvGPLoUSmkG0dyb-3" target="3-ab1XvGPLoUSmkG0dyb-8">
          <mxGeometry relative="1" as="geometry" />
        </mxCell>
        <mxCell id="3-ab1XvGPLoUSmkG0dyb-18" style="rounded=0;orthogonalLoop=1;jettySize=auto;html=1;exitX=0;exitY=1;exitDx=0;exitDy=0;entryX=1;entryY=0.25;entryDx=0;entryDy=0;fillOpacity=0;strokeWidth=3;fontFamily=Verdana;fontSize=20;" edge="1" parent="1" source="3-ab1XvGPLoUSmkG0dyb-8" target="3-ab1XvGPLoUSmkG0dyb-4">
          <mxGeometry relative="1" as="geometry" />
        </mxCell>
      </root>
    </mxGraphModel>
  </diagram>
  <diagram id="Mm3_Xck7X9MZhMcnEw0A" name="strongly_connected_components">
    <mxGraphModel dx="1434" dy="836" grid="1" gridSize="10" guides="1" tooltips="1" connect="1" arrows="1" fold="1" page="1" pageScale="1" pageWidth="1100" pageHeight="850" math="0" shadow="0">
      <root>
        <mxCell id="0" />
        <mxCell id="1" parent="0" />
        <mxCell id="yzRejCA2DbgBDJgwroT6-1" style="rounded=0;orthogonalLoop=1;jettySize=auto;html=1;strokeWidth=3;fillOpacity=0;fontSize=20;fontFamily=Verdana;entryX=0.5;entryY=1;entryDx=0;entryDy=0;" edge="1" parent="1" target="yzRejCA2DbgBDJgwroT6-2">
          <mxGeometry relative="1" as="geometry">
            <mxPoint x="100" y="240" as="targetPoint" />
            <mxPoint x="190" y="280" as="sourcePoint" />
          </mxGeometry>
        </mxCell>
        <mxCell id="yzRejCA2DbgBDJgwroT6-2" value="" style="ellipse;whiteSpace=wrap;html=1;strokeWidth=3;fillOpacity=0;fontSize=20;fontFamily=Verdana;" vertex="1" parent="1">
          <mxGeometry x="140" y="120" width="100" height="80" as="geometry" />
        </mxCell>
        <mxCell id="yzRejCA2DbgBDJgwroT6-3" value="13" style="text;html=1;align=center;verticalAlign=middle;whiteSpace=wrap;rounded=0;strokeWidth=3;fillOpacity=0;fontSize=20;fontFamily=Verdana;" vertex="1" parent="1">
          <mxGeometry x="140" y="140" width="50" height="40" as="geometry" />
        </mxCell>
        <mxCell id="yzRejCA2DbgBDJgwroT6-4" value="14" style="text;html=1;align=center;verticalAlign=middle;whiteSpace=wrap;rounded=0;strokeWidth=3;fillOpacity=0;fontSize=20;fontFamily=Verdana;" vertex="1" parent="1">
          <mxGeometry x="190" y="140" width="50" height="40" as="geometry" />
        </mxCell>
        <mxCell id="yzRejCA2DbgBDJgwroT6-5" value="" style="endArrow=none;html=1;rounded=0;entryX=0.5;entryY=0;entryDx=0;entryDy=0;exitX=0.5;exitY=1;exitDx=0;exitDy=0;strokeWidth=3;fillOpacity=0;fontSize=20;fontFamily=Verdana;" edge="1" parent="1" source="yzRejCA2DbgBDJgwroT6-2" target="yzRejCA2DbgBDJgwroT6-2">
          <mxGeometry width="50" height="50" relative="1" as="geometry">
            <mxPoint x="160" y="300" as="sourcePoint" />
            <mxPoint x="210" y="250" as="targetPoint" />
          </mxGeometry>
        </mxCell>
        <mxCell id="yzRejCA2DbgBDJgwroT6-6" value="A" style="text;html=1;align=center;verticalAlign=middle;whiteSpace=wrap;rounded=0;strokeWidth=3;fillOpacity=0;fontSize=20;fontFamily=Verdana;" vertex="1" parent="1">
          <mxGeometry x="170" y="80" width="40" height="40" as="geometry" />
        </mxCell>
        <mxCell id="yzRejCA2DbgBDJgwroT6-7" value="" style="ellipse;whiteSpace=wrap;html=1;strokeWidth=3;fillOpacity=0;fontSize=20;fontFamily=Verdana;" vertex="1" parent="1">
          <mxGeometry x="140" y="280" width="100" height="80" as="geometry" />
        </mxCell>
        <mxCell id="yzRejCA2DbgBDJgwroT6-8" value="12" style="text;html=1;align=center;verticalAlign=middle;whiteSpace=wrap;rounded=0;strokeWidth=3;fillOpacity=0;fontSize=20;fontFamily=Verdana;" vertex="1" parent="1">
          <mxGeometry x="140" y="300" width="50" height="40" as="geometry" />
        </mxCell>
        <mxCell id="yzRejCA2DbgBDJgwroT6-9" value="15" style="text;html=1;align=center;verticalAlign=middle;whiteSpace=wrap;rounded=0;strokeWidth=3;fillOpacity=0;fontSize=20;fontFamily=Verdana;" vertex="1" parent="1">
          <mxGeometry x="190" y="300" width="50" height="40" as="geometry" />
        </mxCell>
        <mxCell id="yzRejCA2DbgBDJgwroT6-10" value="" style="endArrow=none;html=1;rounded=0;entryX=0.5;entryY=0;entryDx=0;entryDy=0;exitX=0.5;exitY=1;exitDx=0;exitDy=0;strokeWidth=3;fillOpacity=0;fontSize=20;fontFamily=Verdana;" edge="1" parent="1" source="yzRejCA2DbgBDJgwroT6-7" target="yzRejCA2DbgBDJgwroT6-7">
          <mxGeometry width="50" height="50" relative="1" as="geometry">
            <mxPoint x="160" y="460" as="sourcePoint" />
            <mxPoint x="210" y="410" as="targetPoint" />
          </mxGeometry>
        </mxCell>
        <mxCell id="yzRejCA2DbgBDJgwroT6-11" value="E" style="text;html=1;align=center;verticalAlign=middle;whiteSpace=wrap;rounded=0;strokeWidth=3;fillOpacity=0;fontSize=20;fontFamily=Verdana;" vertex="1" parent="1">
          <mxGeometry x="170" y="360" width="40" height="40" as="geometry" />
        </mxCell>
        <mxCell id="yzRejCA2DbgBDJgwroT6-12" style="rounded=0;orthogonalLoop=1;jettySize=auto;html=1;exitX=1;exitY=0.5;exitDx=0;exitDy=0;strokeWidth=3;fillOpacity=0;fontSize=20;fontFamily=Verdana;entryX=0;entryY=0.5;entryDx=0;entryDy=0;" edge="1" parent="1" source="yzRejCA2DbgBDJgwroT6-4" target="yzRejCA2DbgBDJgwroT6-15">
          <mxGeometry relative="1" as="geometry">
            <mxPoint x="300" y="90" as="targetPoint" />
          </mxGeometry>
        </mxCell>
        <mxCell id="yzRejCA2DbgBDJgwroT6-13" style="edgeStyle=orthogonalEdgeStyle;rounded=0;orthogonalLoop=1;jettySize=auto;html=1;exitX=0.5;exitY=1;exitDx=0;exitDy=0;strokeWidth=3;fillOpacity=0;fontSize=20;fontFamily=Verdana;" edge="1" parent="1" source="yzRejCA2DbgBDJgwroT6-14">
          <mxGeometry relative="1" as="geometry">
            <mxPoint x="400" y="280" as="targetPoint" />
          </mxGeometry>
        </mxCell>
        <mxCell id="yzRejCA2DbgBDJgwroT6-14" value="" style="ellipse;whiteSpace=wrap;html=1;strokeWidth=3;fillOpacity=0;fontSize=20;fontFamily=Verdana;" vertex="1" parent="1">
          <mxGeometry x="350" y="120" width="100" height="80" as="geometry" />
        </mxCell>
        <mxCell id="yzRejCA2DbgBDJgwroT6-15" value="11" style="text;html=1;align=center;verticalAlign=middle;whiteSpace=wrap;rounded=0;strokeWidth=3;fillOpacity=0;fontSize=20;fontFamily=Verdana;" vertex="1" parent="1">
          <mxGeometry x="350" y="140" width="50" height="40" as="geometry" />
        </mxCell>
        <mxCell id="yzRejCA2DbgBDJgwroT6-16" value="16" style="text;html=1;align=center;verticalAlign=middle;whiteSpace=wrap;rounded=0;strokeWidth=3;fillOpacity=0;fontSize=20;fontFamily=Verdana;" vertex="1" parent="1">
          <mxGeometry x="400" y="140" width="50" height="40" as="geometry" />
        </mxCell>
        <mxCell id="yzRejCA2DbgBDJgwroT6-17" value="" style="endArrow=none;html=1;rounded=0;entryX=0.5;entryY=0;entryDx=0;entryDy=0;exitX=0.5;exitY=1;exitDx=0;exitDy=0;strokeWidth=3;fillOpacity=0;fontSize=20;fontFamily=Verdana;" edge="1" parent="1" source="yzRejCA2DbgBDJgwroT6-14" target="yzRejCA2DbgBDJgwroT6-14">
          <mxGeometry width="50" height="50" relative="1" as="geometry">
            <mxPoint x="370" y="300" as="sourcePoint" />
            <mxPoint x="420" y="250" as="targetPoint" />
          </mxGeometry>
        </mxCell>
        <mxCell id="yzRejCA2DbgBDJgwroT6-18" value="B" style="text;html=1;align=center;verticalAlign=middle;whiteSpace=wrap;rounded=0;strokeWidth=3;fillOpacity=0;fontSize=20;fontFamily=Verdana;" vertex="1" parent="1">
          <mxGeometry x="380" y="80" width="40" height="40" as="geometry" />
        </mxCell>
        <mxCell id="yzRejCA2DbgBDJgwroT6-19" style="rounded=0;orthogonalLoop=1;jettySize=auto;html=1;exitX=1;exitY=0.5;exitDx=0;exitDy=0;strokeWidth=3;fillOpacity=0;fontSize=20;fontFamily=Verdana;entryX=0;entryY=0.5;entryDx=0;entryDy=0;" edge="1" parent="1" source="yzRejCA2DbgBDJgwroT6-9" target="yzRejCA2DbgBDJgwroT6-21">
          <mxGeometry relative="1" as="geometry">
            <mxPoint x="350" y="440" as="targetPoint" />
          </mxGeometry>
        </mxCell>
        <mxCell id="yzRejCA2DbgBDJgwroT6-20" value="" style="ellipse;whiteSpace=wrap;html=1;strokeWidth=3;fillOpacity=0;fontSize=20;fontFamily=Verdana;" vertex="1" parent="1">
          <mxGeometry x="350" y="280" width="100" height="80" as="geometry" />
        </mxCell>
        <mxCell id="yzRejCA2DbgBDJgwroT6-21" value="3" style="text;html=1;align=center;verticalAlign=middle;whiteSpace=wrap;rounded=0;strokeWidth=3;fillOpacity=0;fontSize=20;fontFamily=Verdana;" vertex="1" parent="1">
          <mxGeometry x="350" y="300" width="50" height="40" as="geometry" />
        </mxCell>
        <mxCell id="yzRejCA2DbgBDJgwroT6-22" value="4" style="text;html=1;align=center;verticalAlign=middle;whiteSpace=wrap;rounded=0;strokeWidth=3;fillOpacity=0;fontSize=20;fontFamily=Verdana;" vertex="1" parent="1">
          <mxGeometry x="400" y="300" width="50" height="40" as="geometry" />
        </mxCell>
        <mxCell id="yzRejCA2DbgBDJgwroT6-23" value="" style="endArrow=none;html=1;rounded=0;entryX=0.5;entryY=0;entryDx=0;entryDy=0;exitX=0.5;exitY=1;exitDx=0;exitDy=0;strokeWidth=3;fillOpacity=0;fontSize=20;fontFamily=Verdana;" edge="1" parent="1" source="yzRejCA2DbgBDJgwroT6-20" target="yzRejCA2DbgBDJgwroT6-20">
          <mxGeometry width="50" height="50" relative="1" as="geometry">
            <mxPoint x="370" y="460" as="sourcePoint" />
            <mxPoint x="420" y="410" as="targetPoint" />
          </mxGeometry>
        </mxCell>
        <mxCell id="yzRejCA2DbgBDJgwroT6-24" value="F" style="text;html=1;align=center;verticalAlign=middle;whiteSpace=wrap;rounded=0;strokeWidth=3;fillOpacity=0;fontSize=20;fontFamily=Verdana;" vertex="1" parent="1">
          <mxGeometry x="380" y="360" width="40" height="40" as="geometry" />
        </mxCell>
        <mxCell id="yzRejCA2DbgBDJgwroT6-26" style="rounded=0;orthogonalLoop=1;jettySize=auto;html=1;entryX=0;entryY=0.5;entryDx=0;entryDy=0;strokeWidth=3;fillOpacity=0;fontSize=20;fontFamily=Verdana;exitX=1;exitY=0.5;exitDx=0;exitDy=0;" edge="1" parent="1" source="yzRejCA2DbgBDJgwroT6-16" target="yzRejCA2DbgBDJgwroT6-28">
          <mxGeometry relative="1" as="geometry">
            <mxPoint x="470" y="230" as="sourcePoint" />
          </mxGeometry>
        </mxCell>
        <mxCell id="yzRejCA2DbgBDJgwroT6-27" value="" style="ellipse;whiteSpace=wrap;html=1;strokeWidth=3;fillOpacity=0;fontSize=20;fontFamily=Verdana;" vertex="1" parent="1">
          <mxGeometry x="550" y="120" width="100" height="80" as="geometry" />
        </mxCell>
        <mxCell id="yzRejCA2DbgBDJgwroT6-28" value="1" style="text;html=1;align=center;verticalAlign=middle;whiteSpace=wrap;rounded=0;strokeWidth=3;fillOpacity=0;fontSize=20;fontFamily=Verdana;" vertex="1" parent="1">
          <mxGeometry x="550" y="140" width="50" height="40" as="geometry" />
        </mxCell>
        <mxCell id="yzRejCA2DbgBDJgwroT6-29" value="10" style="text;html=1;align=center;verticalAlign=middle;whiteSpace=wrap;rounded=0;strokeWidth=3;fillOpacity=0;fontSize=20;fontFamily=Verdana;" vertex="1" parent="1">
          <mxGeometry x="600" y="140" width="50" height="40" as="geometry" />
        </mxCell>
        <mxCell id="yzRejCA2DbgBDJgwroT6-30" value="" style="endArrow=none;html=1;rounded=0;entryX=0.5;entryY=0;entryDx=0;entryDy=0;exitX=0.5;exitY=1;exitDx=0;exitDy=0;strokeWidth=3;fillOpacity=0;fontSize=20;fontFamily=Verdana;" edge="1" parent="1" source="yzRejCA2DbgBDJgwroT6-27" target="yzRejCA2DbgBDJgwroT6-27">
          <mxGeometry width="50" height="50" relative="1" as="geometry">
            <mxPoint x="570" y="300" as="sourcePoint" />
            <mxPoint x="620" y="250" as="targetPoint" />
          </mxGeometry>
        </mxCell>
        <mxCell id="yzRejCA2DbgBDJgwroT6-31" value="C" style="text;html=1;align=center;verticalAlign=middle;whiteSpace=wrap;rounded=0;strokeWidth=3;fillOpacity=0;fontSize=20;fontFamily=Verdana;" vertex="1" parent="1">
          <mxGeometry x="580" y="80" width="40" height="40" as="geometry" />
        </mxCell>
        <mxCell id="yzRejCA2DbgBDJgwroT6-32" style="rounded=0;orthogonalLoop=1;jettySize=auto;html=1;exitX=0;exitY=0.75;exitDx=0;exitDy=0;entryX=1;entryY=0.75;entryDx=0;entryDy=0;strokeWidth=3;fillOpacity=0;fontSize=20;fontFamily=Verdana;entryPerimeter=0;" edge="1" parent="1" source="yzRejCA2DbgBDJgwroT6-35" target="yzRejCA2DbgBDJgwroT6-22">
          <mxGeometry relative="1" as="geometry" />
        </mxCell>
        <mxCell id="yzRejCA2DbgBDJgwroT6-33" style="rounded=0;orthogonalLoop=1;jettySize=auto;html=1;strokeWidth=3;fillOpacity=0;fontSize=20;fontFamily=Verdana;entryX=0.5;entryY=0;entryDx=0;entryDy=0;exitX=0.5;exitY=1;exitDx=0;exitDy=0;" edge="1" parent="1" source="yzRejCA2DbgBDJgwroT6-27" target="yzRejCA2DbgBDJgwroT6-34">
          <mxGeometry relative="1" as="geometry">
            <mxPoint x="600" y="200" as="targetPoint" />
            <mxPoint x="520" y="240" as="sourcePoint" />
          </mxGeometry>
        </mxCell>
        <mxCell id="yzRejCA2DbgBDJgwroT6-34" value="" style="ellipse;whiteSpace=wrap;html=1;strokeWidth=3;fillOpacity=0;fontSize=20;fontFamily=Verdana;" vertex="1" parent="1">
          <mxGeometry x="550" y="280" width="100" height="80" as="geometry" />
        </mxCell>
        <mxCell id="yzRejCA2DbgBDJgwroT6-35" value="2" style="text;html=1;align=center;verticalAlign=middle;whiteSpace=wrap;rounded=0;strokeWidth=3;fillOpacity=0;fontSize=20;fontFamily=Verdana;" vertex="1" parent="1">
          <mxGeometry x="550" y="300" width="50" height="40" as="geometry" />
        </mxCell>
        <mxCell id="yzRejCA2DbgBDJgwroT6-36" value="7" style="text;html=1;align=center;verticalAlign=middle;whiteSpace=wrap;rounded=0;strokeWidth=3;fillOpacity=0;fontSize=20;fontFamily=Verdana;" vertex="1" parent="1">
          <mxGeometry x="600" y="300" width="50" height="40" as="geometry" />
        </mxCell>
        <mxCell id="yzRejCA2DbgBDJgwroT6-37" value="" style="endArrow=none;html=1;rounded=0;entryX=0.5;entryY=0;entryDx=0;entryDy=0;exitX=0.5;exitY=1;exitDx=0;exitDy=0;strokeWidth=3;fillOpacity=0;fontSize=20;fontFamily=Verdana;" edge="1" parent="1" source="yzRejCA2DbgBDJgwroT6-34" target="yzRejCA2DbgBDJgwroT6-34">
          <mxGeometry width="50" height="50" relative="1" as="geometry">
            <mxPoint x="570" y="460" as="sourcePoint" />
            <mxPoint x="620" y="410" as="targetPoint" />
          </mxGeometry>
        </mxCell>
        <mxCell id="yzRejCA2DbgBDJgwroT6-38" value="G" style="text;html=1;align=center;verticalAlign=middle;whiteSpace=wrap;rounded=0;strokeWidth=3;fillOpacity=0;fontSize=20;fontFamily=Verdana;" vertex="1" parent="1">
          <mxGeometry x="580" y="360" width="40" height="40" as="geometry" />
        </mxCell>
        <mxCell id="yzRejCA2DbgBDJgwroT6-39" style="rounded=0;orthogonalLoop=1;jettySize=auto;html=1;exitX=0;exitY=0.25;exitDx=0;exitDy=0;entryX=1;entryY=0.25;entryDx=0;entryDy=0;strokeWidth=3;fillOpacity=0;fontSize=20;fontFamily=Verdana;" edge="1" parent="1" source="yzRejCA2DbgBDJgwroT6-41" target="yzRejCA2DbgBDJgwroT6-29">
          <mxGeometry relative="1" as="geometry" />
        </mxCell>
        <mxCell id="yzRejCA2DbgBDJgwroT6-40" value="" style="ellipse;whiteSpace=wrap;html=1;strokeWidth=3;fillOpacity=0;fontSize=20;fontFamily=Verdana;" vertex="1" parent="1">
          <mxGeometry x="730" y="120" width="100" height="80" as="geometry" />
        </mxCell>
        <mxCell id="yzRejCA2DbgBDJgwroT6-41" value="8" style="text;html=1;align=center;verticalAlign=middle;whiteSpace=wrap;rounded=0;strokeWidth=3;fillOpacity=0;fontSize=20;fontFamily=Verdana;" vertex="1" parent="1">
          <mxGeometry x="730" y="140" width="50" height="40" as="geometry" />
        </mxCell>
        <mxCell id="yzRejCA2DbgBDJgwroT6-42" value="9" style="text;html=1;align=center;verticalAlign=middle;whiteSpace=wrap;rounded=0;strokeWidth=3;fillOpacity=0;fontSize=20;fontFamily=Verdana;" vertex="1" parent="1">
          <mxGeometry x="780" y="140" width="50" height="40" as="geometry" />
        </mxCell>
        <mxCell id="yzRejCA2DbgBDJgwroT6-43" value="" style="endArrow=none;html=1;rounded=0;entryX=0.5;entryY=0;entryDx=0;entryDy=0;exitX=0.5;exitY=1;exitDx=0;exitDy=0;strokeWidth=3;fillOpacity=0;fontSize=20;fontFamily=Verdana;" edge="1" parent="1" source="yzRejCA2DbgBDJgwroT6-40" target="yzRejCA2DbgBDJgwroT6-40">
          <mxGeometry width="50" height="50" relative="1" as="geometry">
            <mxPoint x="750" y="300" as="sourcePoint" />
            <mxPoint x="800" y="250" as="targetPoint" />
          </mxGeometry>
        </mxCell>
        <mxCell id="yzRejCA2DbgBDJgwroT6-44" value="D" style="text;html=1;align=center;verticalAlign=middle;whiteSpace=wrap;rounded=0;strokeWidth=3;fillOpacity=0;fontSize=20;fontFamily=Verdana;" vertex="1" parent="1">
          <mxGeometry x="760" y="80" width="40" height="40" as="geometry" />
        </mxCell>
        <mxCell id="yzRejCA2DbgBDJgwroT6-45" style="rounded=0;orthogonalLoop=1;jettySize=auto;html=1;exitX=1;exitY=0.5;exitDx=0;exitDy=0;strokeWidth=3;fillOpacity=0;fontSize=20;fontFamily=Verdana;entryX=0;entryY=0.5;entryDx=0;entryDy=0;" edge="1" parent="1" source="yzRejCA2DbgBDJgwroT6-36" target="yzRejCA2DbgBDJgwroT6-48">
          <mxGeometry relative="1" as="geometry">
            <mxPoint x="700" y="410" as="targetPoint" />
          </mxGeometry>
        </mxCell>
        <mxCell id="yzRejCA2DbgBDJgwroT6-47" value="" style="ellipse;whiteSpace=wrap;html=1;strokeWidth=3;fillOpacity=0;fontSize=20;fontFamily=Verdana;" vertex="1" parent="1">
          <mxGeometry x="730" y="280" width="100" height="80" as="geometry" />
        </mxCell>
        <mxCell id="yzRejCA2DbgBDJgwroT6-48" value="5" style="text;html=1;align=center;verticalAlign=middle;whiteSpace=wrap;rounded=0;strokeWidth=3;fillOpacity=0;fontSize=20;fontFamily=Verdana;" vertex="1" parent="1">
          <mxGeometry x="730" y="300" width="50" height="40" as="geometry" />
        </mxCell>
        <mxCell id="yzRejCA2DbgBDJgwroT6-49" value="6" style="text;html=1;align=center;verticalAlign=middle;whiteSpace=wrap;rounded=0;strokeWidth=3;fillOpacity=0;fontSize=20;fontFamily=Verdana;" vertex="1" parent="1">
          <mxGeometry x="780" y="300" width="50" height="40" as="geometry" />
        </mxCell>
        <mxCell id="yzRejCA2DbgBDJgwroT6-50" value="" style="endArrow=none;html=1;rounded=0;entryX=0.5;entryY=0;entryDx=0;entryDy=0;exitX=0.5;exitY=1;exitDx=0;exitDy=0;strokeWidth=3;fillOpacity=0;fontSize=20;fontFamily=Verdana;" edge="1" parent="1" source="yzRejCA2DbgBDJgwroT6-47" target="yzRejCA2DbgBDJgwroT6-47">
          <mxGeometry width="50" height="50" relative="1" as="geometry">
            <mxPoint x="750" y="460" as="sourcePoint" />
            <mxPoint x="800" y="410" as="targetPoint" />
          </mxGeometry>
        </mxCell>
        <mxCell id="yzRejCA2DbgBDJgwroT6-51" value="H" style="text;html=1;align=center;verticalAlign=middle;whiteSpace=wrap;rounded=0;strokeWidth=3;fillOpacity=0;fontSize=20;fontFamily=Verdana;" vertex="1" parent="1">
          <mxGeometry x="760" y="360" width="40" height="40" as="geometry" />
        </mxCell>
        <mxCell id="yzRejCA2DbgBDJgwroT6-52" style="rounded=0;orthogonalLoop=1;jettySize=auto;html=1;entryX=1;entryY=0;entryDx=0;entryDy=0;strokeWidth=3;fillOpacity=0;fontSize=20;fontFamily=Verdana;" edge="1" parent="1" source="yzRejCA2DbgBDJgwroT6-14" target="yzRejCA2DbgBDJgwroT6-7">
          <mxGeometry relative="1" as="geometry">
            <mxPoint x="260" y="220" as="sourcePoint" />
          </mxGeometry>
        </mxCell>
        <mxCell id="yzRejCA2DbgBDJgwroT6-53" style="rounded=0;orthogonalLoop=1;jettySize=auto;html=1;strokeWidth=3;fillOpacity=0;fontSize=20;fontFamily=Verdana;" edge="1" parent="1">
          <mxGeometry relative="1" as="geometry">
            <mxPoint x="780" y="200" as="sourcePoint" />
            <mxPoint x="780" y="280" as="targetPoint" />
          </mxGeometry>
        </mxCell>
        <mxCell id="sscbkCLgQLb4kgDpOwHD-1" style="rounded=0;orthogonalLoop=1;jettySize=auto;html=1;exitX=1;exitY=0.25;exitDx=0;exitDy=0;entryX=0;entryY=0.25;entryDx=0;entryDy=0;strokeWidth=3;fillOpacity=0;fontSize=20;fontFamily=Verdana;" edge="1" parent="1" source="yzRejCA2DbgBDJgwroT6-22" target="yzRejCA2DbgBDJgwroT6-35">
          <mxGeometry relative="1" as="geometry">
            <mxPoint x="560" y="340" as="sourcePoint" />
            <mxPoint x="460" y="340" as="targetPoint" />
          </mxGeometry>
        </mxCell>
        <mxCell id="sscbkCLgQLb4kgDpOwHD-2" style="rounded=0;orthogonalLoop=1;jettySize=auto;html=1;exitX=1;exitY=0.75;exitDx=0;exitDy=0;strokeWidth=3;fillOpacity=0;fontSize=20;fontFamily=Verdana;entryX=0;entryY=0.75;entryDx=0;entryDy=0;" edge="1" parent="1" source="yzRejCA2DbgBDJgwroT6-29" target="yzRejCA2DbgBDJgwroT6-41">
          <mxGeometry relative="1" as="geometry">
            <mxPoint x="740" y="160" as="sourcePoint" />
            <mxPoint x="700" y="230" as="targetPoint" />
          </mxGeometry>
        </mxCell>
        <mxCell id="sscbkCLgQLb4kgDpOwHD-6" style="edgeStyle=orthogonalEdgeStyle;rounded=0;orthogonalLoop=1;jettySize=auto;html=1;exitX=1;exitY=0;exitDx=0;exitDy=0;entryX=0.92;entryY=0.875;entryDx=0;entryDy=0;entryPerimeter=0;strokeWidth=3;" edge="1" parent="1" source="yzRejCA2DbgBDJgwroT6-47" target="yzRejCA2DbgBDJgwroT6-47">
          <mxGeometry relative="1" as="geometry">
            <Array as="points">
              <mxPoint x="815" y="290" />
              <mxPoint x="870" y="290" />
              <mxPoint x="870" y="350" />
            </Array>
          </mxGeometry>
        </mxCell>
      </root>
    </mxGraphModel>
  </diagram>
</mxfile>
